<svg width="1920" height="1212" viewBox="0 0 1920 1212" fill="none" xmlns="http://www.w3.org/2000/svg">
<circle cx="902.5" cy="817.5" r="1.5" fill="white"/>
<ellipse rx="1.6688" ry="1.65286" transform="matrix(0.9999 -0.0141261 0.0144 0.999896 908.692 817.629)" fill="white"/>
<ellipse rx="1.6688" ry="1.65286" transform="matrix(0.9999 -0.0141261 0.0144 0.999896 890.692 817.629)" fill="white"/>
<ellipse cx="847.5" cy="817" rx="1.5" ry="1" fill="white"/>
<ellipse rx="1.6688" ry="1.65286" transform="matrix(0.9999 -0.0141261 0.0144 0.999896 911.692 817.629)" fill="white"/>
<ellipse rx="1.6688" ry="1.65286" transform="matrix(0.9999 -0.0141261 0.0144 0.999896 899.692 817.629)" fill="white"/>
<circle cx="850.5" cy="817.5" r="1.5" fill="white"/>
<ellipse rx="1.6688" ry="1.65286" transform="matrix(0.9999 -0.0141261 0.0144 0.999896 875.692 817.629)" fill="white"/>
<ellipse rx="1.6688" ry="1.65286" transform="matrix(0.9999 -0.0141261 0.0144 0.999896 881.692 817.629)" fill="white"/>
<circle cx="887.5" cy="817.5" r="1.5" fill="white"/>
<ellipse rx="1.6688" ry="1.65286" transform="matrix(0.9999 -0.0141261 0.0144 0.999896 884.692 817.629)" fill="white"/>
<ellipse rx="1.6688" ry="1.65286" transform="matrix(0.9999 -0.0141261 0.0144 0.999896 878.692 817.629)" fill="white"/>
<circle cx="905.5" cy="817.5" r="1.5" fill="white"/>
<ellipse rx="1.6688" ry="1.65286" transform="matrix(0.9999 -0.0141261 0.0144 0.999896 896.692 817.629)" fill="white"/>
<ellipse rx="1.6688" ry="1.65286" transform="matrix(0.9999 -0.0141261 0.0144 0.999896 893.692 817.629)" fill="white"/>
<circle cx="865.5" cy="817.5" r="1.5" fill="white"/>
<circle cx="835.413" cy="817.373" r="1.39323" transform="rotate(-0.817203 835.413 817.373)" fill="white"/>
<circle cx="862.5" cy="817.5" r="1.5" fill="white"/>
<ellipse rx="1.6688" ry="1.65286" transform="matrix(0.9999 -0.0141261 0.0144 0.999896 872.692 817.629)" fill="white"/>
<circle cx="844.413" cy="817.373" r="1.39323" transform="rotate(-0.817203 844.413 817.373)" fill="white"/>
<circle cx="838.5" cy="817.5" r="1.5" fill="white"/>
<circle cx="841.413" cy="817.373" r="1.39323" transform="rotate(-0.817203 841.413 817.373)" fill="white"/>
<circle cx="829.413" cy="817.373" r="1.39323" transform="rotate(-0.817203 829.413 817.373)" fill="white"/>
<circle cx="817.413" cy="817.373" r="1.39323" transform="rotate(-0.817203 817.413 817.373)" fill="white"/>
<circle cx="826.413" cy="817.373" r="1.39323" transform="rotate(-0.817203 826.413 817.373)" fill="white"/>
<circle cx="808.413" cy="817.373" r="1.39323" transform="rotate(-0.817203 808.413 817.373)" fill="white"/>
<circle cx="814.413" cy="817.373" r="1.39323" transform="rotate(-0.817203 814.413 817.373)" fill="white"/>
<circle cx="823.413" cy="817.373" r="1.39323" transform="rotate(-0.817203 823.413 817.373)" fill="white"/>
<ellipse cx="869" cy="818.5" rx="2" ry="2.5" fill="white"/>
<circle cx="820.413" cy="817.373" r="1.39323" transform="rotate(-0.817203 820.413 817.373)" fill="white"/>
<circle cx="811.413" cy="817.373" r="1.39323" transform="rotate(-0.817203 811.413 817.373)" fill="white"/>
<ellipse rx="1.6688" ry="1.65286" transform="matrix(0.9999 -0.0141261 0.0144 0.999896 856.692 817.629)" fill="white"/>
<circle cx="859.5" cy="817.5" r="1.5" fill="white"/>
<circle cx="832.413" cy="817.373" r="1.39323" transform="rotate(-0.817203 832.413 817.373)" fill="white"/>
<ellipse rx="1.6688" ry="1.65286" transform="matrix(0.9999 -0.0141261 0.0144 0.999896 853.692 817.629)" fill="white"/>
<circle cx="914.5" cy="817.5" r="1.5" fill="white"/>
<g clip-path="url(#clip0)">
<rect width="1920" height="1212" fill="white"/>
<path d="M2314 0H-605V1490H2314V0Z" fill="#271D36"/>
<path d="M2212.47 1321.59L1836.64 895.5C2510.95 1307 2165.74 877.827 1979.23 877.827C1850.02 877.827 1949.33 1045.67 1804.88 877.827C1660.43 709.979 2469.6 651.907 1777.99 841.793C1237.71 156.996 117.541 126.814 -33.0925 357.389C-189.124 376.982 28.0317 493.596 -49.9841 552.746L-128 611.897V1440H-49.9841C28.0317 1440 184.063 1440 340.095 1440C496.126 1440 652.158 1440 808.19 1440C964.221 1440 1120.25 1440 1276.28 1440C1432.32 1440 1588.35 1440 1744.38 1440C1900.41 1440 2056.44 1440 2134.46 1440H2212.47V1321.59Z" fill="#6A3584"/>
<path d="M2212.47 1486.59L1836.64 1060.5C2510.95 1472 2165.74 1042.83 1979.23 1042.83C1850.02 1042.83 1949.33 1210.67 1804.88 1042.83C1660.43 874.979 2469.6 816.907 1777.99 1006.79C1237.71 321.996 117.541 291.814 -33.0925 522.389C-189.124 541.982 28.0317 658.596 -49.9841 717.746L-128 776.897V1605H-49.9841C28.0317 1605 184.063 1605 340.095 1605C496.126 1605 652.158 1605 808.19 1605C964.221 1605 1120.25 1605 1276.28 1605C1432.32 1605 1588.35 1605 1744.38 1605C1900.41 1605 2056.44 1605 2134.46 1605H2212.47V1486.59Z" fill="#843572"/>
<path d="M2241.47 1181.59L1865.64 755.5C2539.95 1167 2194.74 737.827 2008.23 737.827C1879.02 737.827 1978.33 905.674 1833.88 737.827C1689.43 569.979 2498.6 511.907 1806.99 701.793C1266.71 16.9963 146.541 -13.1862 -4.09253 217.389C-160.124 236.982 57.0317 353.596 -20.9841 412.746L-99 471.897V1300H-20.9841C57.0317 1300 213.063 1300 369.095 1300C525.126 1300 681.158 1300 837.19 1300C993.221 1300 1149.25 1300 1305.28 1300C1461.32 1300 1617.35 1300 1773.38 1300C1929.41 1300 2085.44 1300 2163.46 1300H2241.47V1181.59Z" fill="#353D84" fill-opacity="0.54"/>
</g>
<defs>
<clipPath id="clip0">
<rect width="1920" height="1212" fill="white"/>
</clipPath>
</defs>
</svg>
