<svg width="1920" height="1137" viewBox="0 0 1920 1137" fill="none" xmlns="http://www.w3.org/2000/svg">
<path d="M0 703.5V510.5C91 718.5 231 743.5 384 743.5C490 743.5 674 673 792.5 600C911 527 1024 463.979 1152 386.32C1280 309.626 1408 274.253 1536 283.418C1664 291.94 1792 343.391 1856 369.116L1920 394.842V755H1856C1792 755 1664 755 1536 755C1408 755 1280 755 1152 755C1024 755 896 755 768 755C640 755 512 755 384 755C256 755 128 755 64 755H0V703.5Z" fill="black"/>
<path d="M0 1137L64 1122.81C128 1109.15 256 1079.97 384 1037.92C512 995.076 640 939.368 768 896.526C896 854.479 1024 825.299 1152 818.667C1280 812.035 1408 825.299 1536 861.111C1664 896.924 1792 952.632 1856 981.415L1920 1009.67V755H1856C1792 755 1664 755 1536 755C1408 755 1280 755 1152 755C1024 755 896 755 768 755C640 755 512 755 384 755C256 755 128 755 64 755H0V1137Z" fill="black"/>
<circle cx="1797" cy="8" r="8" fill="white"/>
<circle cx="1865" cy="646" r="2" fill="white"/>
<circle cx="1783" cy="840" r="2" fill="white"/>
<circle cx="1799.03" cy="718.028" r="2" transform="rotate(-0.817203 1799.03 718.028)" fill="white"/>
<circle cx="1686.03" cy="819.028" r="2" transform="rotate(-0.817203 1686.03 819.028)" fill="white"/>
<circle cx="950" cy="712" r="2" fill="white"/>
<circle cx="1817.03" cy="498.028" r="2" transform="rotate(-0.817203 1817.03 498.028)" fill="white"/>
<circle cx="1751.03" cy="642.028" r="2" transform="rotate(-0.817203 1751.03 642.028)" fill="white"/>
<circle cx="1022" cy="609" r="2" fill="white"/>
<circle cx="1431.03" cy="477.028" r="2" transform="rotate(-0.817203 1431.03 477.028)" fill="white"/>
<circle cx="1554.03" cy="685.028" r="2" transform="rotate(-0.817203 1554.03 685.028)" fill="white"/>
<circle cx="1650" cy="710" r="2" fill="white"/>
<circle cx="1558.03" cy="549.028" r="2" transform="rotate(-0.817203 1558.03 549.028)" fill="white"/>
<circle cx="1575.03" cy="781.028" r="2" transform="rotate(-0.817203 1575.03 781.028)" fill="white"/>
<circle cx="1747" cy="517" r="2" fill="white"/>
<circle cx="1717.03" cy="432.028" r="2" transform="rotate(-0.817203 1717.03 432.028)" fill="white"/>
<circle cx="1654.03" cy="553.028" r="2" transform="rotate(-0.817203 1654.03 553.028)" fill="white"/>
<circle cx="1318" cy="626" r="2" fill="white"/>
<circle cx="712.028" cy="737.028" r="2" transform="rotate(-0.817203 712.028 737.028)" fill="white"/>
<circle cx="1483.03" cy="380.028" r="2" transform="rotate(-0.817203 1483.03 380.028)" fill="white"/>
<circle cx="1238" cy="473" r="2" fill="white"/>
<circle cx="1427.03" cy="605.028" r="2" transform="rotate(-0.817203 1427.03 605.028)" fill="white"/>
<circle cx="946.028" cy="807.028" r="2" transform="rotate(-0.817203 946.028 807.028)" fill="white"/>
<circle cx="813" cy="815" r="2" fill="white"/>
<circle cx="856.028" cy="622.028" r="2" transform="rotate(-0.817203 856.028 622.028)" fill="white"/>
<circle cx="538.028" cy="799.028" r="2" transform="rotate(-0.817203 538.028 799.028)" fill="white"/>
<circle cx="247.028" cy="882.028" r="2" transform="rotate(-0.817203 247.028 882.028)" fill="white"/>
<circle cx="74.0283" cy="886.028" r="2" transform="rotate(-0.817203 74.0283 886.028)" fill="white"/>
<circle cx="120.028" cy="759.028" r="2" transform="rotate(-0.817203 120.028 759.028)" fill="white"/>
<circle cx="178.028" cy="1049.03" r="2" transform="rotate(-0.817203 178.028 1049.03)" fill="white"/>
<circle cx="26.0283" cy="1073.03" r="2" transform="rotate(-0.817203 26.0283 1073.03)" fill="white"/>
<circle cx="306.028" cy="990.028" r="2" transform="rotate(-0.817203 306.028 990.028)" fill="white"/>
<circle cx="45.0283" cy="776.028" r="2" transform="rotate(-0.817203 45.0283 776.028)" fill="white"/>
<circle cx="1401" cy="735" r="2" fill="white"/>
<circle cx="557.028" cy="919.028" r="2" transform="rotate(-0.817203 557.028 919.028)" fill="white"/>
<circle cx="1135.03" cy="652.028" r="2" transform="rotate(-0.817203 1135.03 652.028)" fill="white"/>
<circle cx="1238" cy="780" r="2" fill="white"/>
<circle cx="633.028" cy="840.028" r="2" transform="rotate(-0.817203 633.028 840.028)" fill="white"/>
<circle cx="1258.03" cy="706.028" r="2" transform="rotate(-0.817203 1258.03 706.028)" fill="white"/>
<circle cx="1894" cy="428" r="2" fill="white"/>
<circle cx="1865" cy="931" r="2" fill="white"/>
</svg>
