<svg width="248" height="243" viewBox="0 0 248 243" fill="none" xmlns="http://www.w3.org/2000/svg">
<ellipse cx="3.32725" cy="94.8174" rx="3.32725" ry="2.38236" fill="#EFA1BF"/>
<ellipse cx="3.32725" cy="143.416" rx="3.32725" ry="2.38236" fill="#EFA1BF"/>
<ellipse cx="3.32725" cy="192.018" rx="3.32725" ry="2.38236" fill="#EFA1BF"/>
<ellipse cx="3.32725" cy="240.617" rx="3.32725" ry="2.38236" fill="#EFA1BF"/>
<ellipse cx="51.0187" cy="70.0408" rx="3.32725" ry="2.38236" fill="#EFA1BF"/>
<ellipse cx="51.0187" cy="115.781" rx="3.32725" ry="2.38236" fill="#EFA1BF"/>
<ellipse cx="51.0187" cy="161.524" rx="3.32725" ry="2.38236" fill="#EFA1BF"/>
<ellipse cx="51.0187" cy="207.266" rx="3.32725" ry="2.38236" fill="#EFA1BF"/>
<ellipse cx="196.308" cy="27.16" rx="3.32725" ry="2.38236" fill="#EFA1BF"/>
<ellipse cx="196.308" cy="75.7588" rx="3.32725" ry="2.38236" fill="#EFA1BF"/>
<ellipse cx="196.308" cy="124.359" rx="3.32725" ry="2.38236" fill="#EFA1BF"/>
<ellipse cx="196.308" cy="172.959" rx="3.32725" ry="2.38236" fill="#EFA1BF"/>
<ellipse cx="243.999" cy="2.38236" rx="3.32725" ry="2.38236" fill="#EFA1BF"/>
<ellipse cx="243.999" cy="48.1233" rx="3.32725" ry="2.38236" fill="#EFA1BF"/>
<ellipse cx="243.999" cy="93.8643" rx="3.32725" ry="2.38236" fill="#EFA1BF"/>
<ellipse cx="243.999" cy="139.605" rx="3.32725" ry="2.38236" fill="#EFA1BF"/>
<ellipse cx="105.366" cy="90.0533" rx="3.32725" ry="2.38236" fill="#EFA1BF"/>
<ellipse cx="105.366" cy="138.653" rx="3.32725" ry="2.38236" fill="#EFA1BF"/>
<ellipse cx="105.366" cy="187.253" rx="3.32725" ry="2.38236" fill="#EFA1BF"/>
<ellipse cx="105.366" cy="235.853" rx="3.32725" ry="2.38236" fill="#EFA1BF"/>
<ellipse cx="153.054" cy="65.2757" rx="3.32725" ry="2.38236" fill="#EFA1BF"/>
<ellipse cx="153.054" cy="111.019" rx="3.32725" ry="2.38236" fill="#EFA1BF"/>
<ellipse cx="153.054" cy="156.759" rx="3.32725" ry="2.38236" fill="#EFA1BF"/>
<ellipse cx="153.054" cy="202.502" rx="3.32725" ry="2.38236" fill="#EFA1BF"/>
</svg>
