<svg width="1441" height="142" viewBox="0 0 1441 142" fill="none" xmlns="http://www.w3.org/2000/svg">
<path d="M979.321 0C977.881 12.9416 976.258 25.5884 974.493 38.0016C972.943 25.4871 971.159 12.9627 969.098 0.426382C970.664 17.3857 971.842 33.9508 972.698 50.1873C971.143 60.4146 969.484 70.4726 967.738 80.3882C962.566 63.6161 956.796 47.0421 950.316 30.7042C956.107 52.0486 961.008 73.211 965.226 94.2328C964.415 98.5734 963.583 102.878 962.74 107.166C958.827 92.9545 954.487 78.8685 949.672 64.9266C950.213 56.7435 950.666 48.5336 950.996 40.285C950.202 47.4254 949.351 54.4683 948.455 61.4433C947.384 58.3985 946.297 55.3591 945.178 52.3285C946.176 56.3808 947.133 60.4227 948.069 64.4606C946.4 77.2217 944.56 89.7057 942.584 101.968C941.388 94.1929 940.126 86.4229 938.777 78.6571C938.494 61.9624 937.711 45.0245 936.29 27.7778C936.043 35.396 935.735 42.9403 935.371 50.4203C935.032 45.0051 934.661 39.5844 934.226 34.1549C934.289 40.9063 934.286 47.5764 934.246 54.1972C931.077 38.1178 927.527 22.0632 923.507 6.03692C927.761 30.1899 931.144 53.6081 933.862 76.4669C933.766 77.9305 933.678 79.4047 933.576 80.8635C931.929 73.6986 930.173 66.5113 928.299 59.2998C927.923 48.3777 927.32 37.3459 926.451 26.1817C926.173 33.732 925.828 41.2032 925.436 48.6192C924.604 45.606 923.755 42.5901 922.878 39.5674C923.671 44.289 924.431 48.9861 925.166 53.6659C924.136 71.9401 922.767 89.8153 921.123 107.362C920.328 105.293 919.525 103.227 918.718 101.162C918.598 100.57 918.48 99.9768 918.358 99.3844C918.394 99.7523 918.421 100.116 918.455 100.484C915.647 93.318 912.765 86.1777 909.804 79.0625C909.42 74.2856 909.013 69.506 908.554 64.7193C908.654 68.7128 908.734 72.682 908.795 76.63C901.852 60.0615 894.46 43.6416 886.509 27.4073C894.756 47.9615 902.163 68.1037 908.918 87.9233C908.975 96.4891 908.938 104.943 908.828 113.311C905.837 105.279 902.753 97.2766 899.561 89.305C899.2 81.7528 898.728 74.1471 898.13 66.4784C897.915 72.3293 897.661 78.1343 897.378 83.9041C892.351 71.5634 887.066 59.2983 881.471 47.1281C887.05 62.066 892.197 76.7764 896.991 91.2994C896.902 92.9485 896.812 94.5986 896.718 96.2413C891.939 80.8379 886.641 65.3837 880.681 49.8634C882.966 58.8461 885.132 67.7562 887.196 76.6067C887.473 79.1482 887.744 81.6824 888.004 84.207C887.057 78.8991 886.053 73.5724 884.978 68.2235C887.03 92.8182 888.371 116.773 889.145 140.215H900.369C900.372 139.993 900.378 139.774 900.381 139.553C900.422 139.774 900.461 139.994 900.502 140.215H950.11C949.493 126.024 948.474 111.828 946.979 97.6253C947.881 88.4334 948.671 79.2054 949.331 69.9384C953.301 87.537 956.712 105.005 959.669 122.365C958.424 128.361 957.148 134.306 955.85 140.215H995.345C995.318 138.719 995.292 137.222 995.257 135.727C998.797 117.707 1001.68 99.4844 1003.81 81.0243C1000.97 93.4417 997.896 105.627 994.642 117.626C993.981 102.756 992.927 87.9122 991.419 73.0955C991.427 70.869 991.431 68.6406 991.419 66.4108C991.307 67.4842 991.181 68.5485 991.066 69.6192C989.948 59.1373 988.603 48.6704 987.008 38.2183C987.916 25.9778 988.608 13.6712 989.049 1.28847C988.018 10.9492 986.888 20.4487 985.671 29.8095C985.445 28.4458 985.215 27.0813 984.981 25.7181C985.114 27.9142 985.225 30.1002 985.342 32.2886C983.321 47.5972 981.07 62.5336 978.618 77.1496C977.839 68.2525 976.952 59.3522 975.958 50.4459C977.49 33.7576 978.644 16.9525 979.326 0H979.321ZM681.27 35.3012C685.194 57.7127 688.371 79.4896 690.964 100.775C691.979 114.121 692.766 127.252 693.373 140.215H701.596C699.607 126.553 697.406 112.903 694.942 99.2702C692.079 77.9674 688.598 56.6656 684.312 35.3664C685.429 44.0798 686.429 52.6858 687.342 61.208C685.443 52.5652 683.425 43.9284 681.27 35.3012ZM1028.44 36.1796C1028.18 44.3679 1027.82 52.4929 1027.36 60.558C1023.19 77.0983 1018.64 93.2501 1013.78 109.086C1011.99 101.801 1010.08 94.4452 1008.03 86.9983C1009.2 96.9771 1010.32 106.911 1011.38 116.792C1009.81 121.763 1008.21 126.7 1006.59 131.612C1005.03 124.59 1003.36 117.5 1001.57 110.324C1002.47 119.927 1003.32 129.486 1004.12 138.996C1003.98 139.404 1003.84 139.807 1003.7 140.215H1013.34C1013.44 139.845 1013.54 139.477 1013.63 139.108C1013.67 139.477 1013.7 139.846 1013.74 140.215H1028.44V36.1796ZM724.969 48.3513C725.086 74.4496 724.378 99.5222 723.06 123.835C720.601 116.731 718.017 109.616 715.295 102.486C717.858 112.646 720.267 122.713 722.55 132.705C722.397 135.224 722.217 137.71 722.052 140.215H728.501C728.222 139.345 727.957 138.477 727.675 137.607C727.968 108.042 727.223 78.3141 724.969 48.3513ZM986.105 49.4371C986.778 68.2426 986.897 86.7742 986.568 105.088C985.239 114.224 983.789 123.269 982.238 132.234C981.762 121.924 981.191 111.608 980.489 101.288C982.725 84.1147 984.624 66.84 986.105 49.4371ZM706.127 50.1873C708.532 72.431 710.253 94.0017 711.449 115.056C709.34 107.929 707.117 100.785 704.754 93.6177C706.689 103.078 708.504 112.455 710.21 121.759C709.068 119.204 707.91 116.649 706.735 114.093C702.887 102.534 698.828 91.018 694.5 79.5588C700.631 100.219 706.014 120.402 710.816 140.215H718.434C718.291 139.669 718.15 139.124 718.007 138.579C715.256 109.143 711.454 79.6815 706.127 50.1873ZM749.564 52.4171C751.459 67.213 753.04 81.7126 754.366 95.9733C752.608 89.8423 750.787 83.72 748.904 77.6086C748.438 73.931 747.953 70.2527 747.442 66.5716C747.621 69.2409 747.781 71.8857 747.942 74.5354C747.26 72.3509 746.57 70.1678 745.872 67.9859C745.531 64.8891 745.167 61.793 744.782 58.6963C744.81 60.7328 744.818 62.7578 744.835 64.7868C744.494 63.7333 744.155 62.678 743.81 61.6251C743.457 59.4351 743.099 57.2479 742.724 55.0593C743.688 71.2223 744.209 87.166 744.373 102.935C744.208 108.185 744.011 113.415 743.769 118.621C742.111 111.873 740.357 105.104 738.479 98.308C740.182 109.304 741.717 120.173 743.123 130.944C742.943 134.043 742.741 137.13 742.535 140.215H754.812C753.704 123.248 752.237 106.254 750.293 89.2258C752.338 98.2367 754.259 107.161 756.066 116.004C756.697 124.158 757.217 132.209 757.69 140.215H781.928C781.33 137.628 780.72 135.037 780.093 132.444C781.338 115.379 782.013 98.2254 782 80.9637C780.562 94.111 778.857 107.051 776.933 119.82C775.405 113.951 773.798 108.067 772.102 102.162C773.452 110.34 774.713 118.45 775.897 126.505C775.358 129.923 774.804 133.331 774.234 136.724C772.51 126.4 770.641 116.084 768.62 105.778C768.017 95.5369 767.194 85.2926 766.124 75.041C766.092 80.7996 765.994 86.5197 765.859 92.2174C763.512 81.0555 760.978 69.9053 758.208 58.7686C760.983 74.7143 763.38 90.3366 765.458 105.692C765.314 109.547 765.14 113.388 764.952 117.218C762.717 108.181 760.302 99.1814 757.681 90.2253C760.163 104.386 762.276 118.428 764.089 132.37C762.892 127.561 761.667 122.755 760.405 117.956C757.503 96.1076 753.958 74.2623 749.564 52.4171ZM785.191 59.9172C787.4 87.6624 788.578 114.325 789.018 140.215H793.966C792.05 113.509 789.254 86.75 785.191 59.9172ZM744.021 62.9392C744.301 64.0559 744.568 65.166 744.844 66.2803C744.848 66.9856 744.86 67.6962 744.864 68.4006C744.591 66.5804 744.31 64.7585 744.021 62.9392ZM818.429 63.1768C818.915 68.5942 819.348 73.9591 819.757 79.2978C819.717 79.067 819.681 78.8368 819.642 78.6058C820.865 99.4763 821.353 119.984 821.28 140.215H827.768C825.599 114.579 822.588 88.904 818.429 63.1768ZM746.332 72.3336C746.998 75.0837 747.655 77.8267 748.295 80.5583C748.777 89.1499 749.164 97.64 749.467 106.039C749.095 102.164 748.693 98.2903 748.26 94.4193C747.734 87.0567 747.095 79.6955 746.332 72.3336ZM973.683 72.7227C974.021 82.236 974.266 91.653 974.406 100.964C974.32 101.429 974.228 101.888 974.141 102.353C973.219 99.0023 972.281 95.6577 971.314 92.3223C972.154 85.8046 972.948 79.2729 973.683 72.7227ZM806.019 74.088C807.545 85.5077 808.832 96.8368 809.929 108.091C809.717 118.895 809.326 129.597 808.784 140.215H819.995C819.471 138.905 818.953 137.596 818.421 136.286C816.856 126.122 815.081 115.989 813.088 105.892C812.291 95.8445 811.282 85.7957 810.034 75.7493C810.107 81.063 810.122 86.3453 810.108 91.6093C808.823 85.7571 807.467 79.9149 806.019 74.088ZM856.515 74.6356C856.847 78.5372 857.159 82.4154 857.452 86.276C857.072 84.9189 856.692 83.5622 856.305 82.2056C856.619 83.705 856.913 85.1898 857.22 86.6838C856.03 84.8334 854.828 82.9826 853.614 81.1362C854.985 83.9111 856.336 86.6808 857.678 89.4471C858.444 99.8863 859.076 110.188 859.574 120.349C856.122 114.339 852.562 108.344 848.882 102.364C847.761 93.1689 846.521 83.9662 845.122 74.7544C846.774 95.3936 847.857 115.438 848.495 135.014C847.786 132.447 847.055 129.874 846.314 127.302C846.083 113.866 845.481 100.411 844.458 86.9284C844.124 96.7633 843.634 106.496 843.013 116.146C842.376 114.057 841.728 111.964 841.068 109.872C841.665 112.995 842.24 116.102 842.812 119.208C842.336 126.255 841.786 133.256 841.171 140.215H846.407C846.407 140.036 846.409 139.857 846.409 139.679C846.439 139.858 846.467 140.035 846.497 140.215H852.773C851.73 127.995 850.499 115.763 849.022 103.518C852.767 111.659 856.393 119.763 859.907 127.829C860.086 131.98 860.239 136.105 860.377 140.215H870.87C867.368 124.305 863.511 108.433 859.199 92.6065C865.123 104.9 870.767 117.111 876.169 129.25C875.93 132.918 875.666 136.571 875.388 140.215H880.406C880.4 139.759 880.402 139.303 880.396 138.847C880.594 139.303 880.791 139.759 880.99 140.215H888.394C887.408 138.35 886.42 136.486 885.418 134.625C883.087 114.908 880.224 95.1787 876.671 75.4324C878.551 92.9298 880.003 110.005 881.117 126.747C880.77 126.121 880.418 125.495 880.069 124.869C879.668 113.072 878.977 101.259 877.962 89.4331C877.723 99.3989 877.322 109.262 876.786 119.042C871.037 108.944 865.001 98.8935 858.628 88.8972C857.957 84.1444 857.262 79.3923 856.515 74.6356ZM639.504 76.5718C640.302 80.4716 641.075 84.3535 641.833 88.2262C640.714 85.1783 639.571 82.1292 638.402 79.0765C641.147 89.908 643.717 100.636 646.144 111.277C647.88 121.004 649.486 130.644 650.989 140.215H658.799C656.284 131.503 653.617 122.776 650.765 114.031C647.376 101.603 643.642 89.1187 639.504 76.5718ZM928.71 77.5806C929.864 85.8357 930.938 94.0306 931.934 102.169C931.158 111.36 930.3 120.454 929.372 129.466C928.901 128.167 928.427 126.869 927.952 125.571C928.607 109.772 928.903 93.797 928.71 77.5806ZM675.553 82.1124C677.105 101.876 678.192 121.216 678.903 140.215H684.606C682.337 121.091 679.401 101.749 675.553 82.1124ZM1025.76 83.7457C1024.97 93.7405 1024.04 103.656 1022.99 113.49C1021.45 118.515 1019.88 123.498 1018.28 128.462C1017.97 127.019 1017.65 125.578 1017.33 124.129C1020.49 110.776 1023.32 97.3228 1025.76 83.7457ZM889.317 85.873C891.506 95.5551 893.578 105.167 895.528 114.706C895.327 117.533 895.115 120.347 894.898 123.155C893.273 110.731 891.419 98.3033 889.317 85.873ZM660.522 90.251C663.634 107.162 666.36 123.801 668.773 140.215H674.003C670.123 123.674 665.682 107.029 660.522 90.251ZM910.867 93.7203C912.509 98.6138 914.113 103.49 915.684 108.348C915.429 115.435 915.099 122.476 914.695 129.469C913.918 127.288 913.14 125.108 912.351 122.931C911.991 113.212 911.503 103.475 910.867 93.7203ZM806.37 94.5171C805.76 107.72 804.871 120.738 803.753 133.604C802.086 126.817 800.317 120.006 798.425 113.168C799.838 122.267 801.126 131.271 802.335 140.215H807.729C807.766 125.019 807.339 109.789 806.37 94.5171ZM900.013 100.58C901.353 104.748 902.66 108.899 903.944 113.038C903.842 115.27 903.727 117.495 903.61 119.718C902.509 115.757 901.385 111.793 900.219 107.826C900.16 105.416 900.094 103.001 900.013 100.58ZM946.525 102.15C946.463 110.149 946.301 118.092 946.046 125.979C945.658 123.121 945.269 120.263 944.864 117.407C945.452 112.332 946.004 107.245 946.525 102.15ZM700.262 104.219C701.988 116.362 703.517 128.352 704.887 140.215H708.764C706.251 128.293 703.437 116.299 700.262 104.219ZM916.676 111.442C917.72 114.698 918.751 117.949 919.76 121.188C919.176 126.857 918.557 132.482 917.918 138.085C917.673 129.213 917.264 120.332 916.676 111.442ZM968.632 111.968C969.23 115.229 969.812 118.486 970.379 121.74C969.815 124.54 969.245 127.328 968.669 130.107C968.108 127.793 967.548 125.481 966.967 123.173C967.535 119.442 968.093 115.708 968.632 111.968ZM831.039 115.456C832.564 123.774 833.992 132.024 835.339 140.215H838.147C835.94 131.992 833.581 123.741 831.039 115.456ZM905.426 117.854C906.479 121.298 907.521 124.737 908.538 128.162C908.464 131.18 908.382 134.188 908.287 137.183C907.504 134.133 906.697 131.082 905.88 128.029C905.753 124.639 905.603 121.247 905.426 117.854ZM787.54 124.823C787.18 128.957 786.808 133.077 786.432 137.19C786.412 135.128 786.396 133.072 786.358 130.993C785.946 134.078 785.518 137.141 785.098 140.215H788.361C788.131 135.128 787.869 130.01 787.54 124.823ZM656.934 129.201C658.339 132.882 659.717 136.553 661.077 140.215H662.59C660.741 136.542 658.866 132.87 656.934 129.201ZM855.775 139.413C855.771 139.681 855.764 139.946 855.76 140.215H855.88C855.843 139.946 855.812 139.682 855.775 139.413Z" fill="url(#paint0_linear)"/>
<path d="M473.576 1C472.136 13.9416 470.513 26.5884 468.747 39.0016C467.198 26.4871 465.414 13.9627 463.353 1.42638C464.919 18.3857 466.096 34.9508 466.953 51.1873C465.398 61.4146 463.739 71.4726 461.992 81.3882C456.821 64.6161 451.051 48.0421 444.57 31.7042C450.362 53.0486 455.263 74.211 459.48 95.2328C458.669 99.5734 457.838 103.878 456.995 108.166C453.082 93.9545 448.742 79.8685 443.927 65.9266C444.468 57.7435 444.921 49.5336 445.251 41.285C444.457 48.4254 443.605 55.4683 442.71 62.4433C441.639 59.3985 440.552 56.3591 439.433 53.3285C440.43 57.3808 441.387 61.4227 442.324 65.4606C440.654 78.2217 438.815 90.7057 436.839 102.968C435.643 95.1929 434.381 87.4229 433.032 79.6571C432.749 62.9624 431.966 46.0245 430.545 28.7778C430.298 36.396 429.99 43.9403 429.626 51.4203C429.286 46.0051 428.916 40.5844 428.481 35.1549C428.543 41.9063 428.541 48.5764 428.501 55.1972C425.332 39.1178 421.782 23.0632 417.762 7.03692C422.016 31.1899 425.399 54.6081 428.117 77.4669C428.021 78.9305 427.933 80.4047 427.831 81.8635C426.184 74.6986 424.428 67.5113 422.554 60.2998C422.178 49.3777 421.575 38.3459 420.706 27.1817C420.428 34.732 420.082 42.2032 419.691 49.6192C418.859 46.606 418.01 43.5901 417.133 40.5674C417.926 45.289 418.685 49.9861 419.421 54.6659C418.39 72.9401 417.022 90.8153 415.378 108.362C414.583 106.293 413.78 104.227 412.973 102.162C412.853 101.57 412.735 100.977 412.613 100.384C412.649 100.752 412.676 101.116 412.709 101.484C409.902 94.318 407.019 87.1777 404.059 80.0625C403.675 75.2856 403.268 70.506 402.809 65.7193C402.909 69.7128 402.988 73.682 403.05 77.63C396.106 61.0615 388.715 44.6416 380.764 28.4073C389.01 48.9615 396.418 69.1037 403.173 88.9233C403.23 97.4891 403.193 105.943 403.083 114.311C400.092 106.279 397.008 98.2766 393.816 90.305C393.454 82.7528 392.983 75.1471 392.385 67.4784C392.17 73.3293 391.916 79.1343 391.632 84.9041C386.606 72.5634 381.321 60.2983 375.726 48.1281C381.305 63.066 386.452 77.7764 391.246 92.2994C391.156 93.9485 391.067 95.5986 390.973 97.2413C386.194 81.8379 380.896 66.3837 374.936 50.8634C377.221 59.8461 379.387 68.7562 381.451 77.6067C381.728 80.1482 381.998 82.6824 382.259 85.207C381.312 79.8991 380.308 74.5724 379.233 69.2235C381.285 93.8182 382.626 117.773 383.399 141.215H394.623C394.627 140.993 394.633 140.774 394.636 140.553C394.677 140.774 394.716 140.994 394.757 141.215H444.365C443.748 127.024 442.729 112.828 441.234 98.6253C442.136 89.4334 442.926 80.2054 443.586 70.9384C447.556 88.537 450.967 106.005 453.924 123.365C452.679 129.361 451.403 135.306 450.104 141.215H489.6C489.572 139.719 489.547 138.222 489.512 136.727C493.051 118.707 495.939 100.484 498.061 82.0243C495.22 94.4417 492.151 106.627 488.897 118.626C488.236 103.756 487.182 88.9122 485.674 74.0955C485.682 71.869 485.686 69.6406 485.674 67.4108C485.562 68.4842 485.436 69.5485 485.32 70.6192C484.203 60.1373 482.858 49.6704 481.262 39.2183C482.171 26.9778 482.863 14.6712 483.304 2.28847C482.273 11.9492 481.143 21.4487 479.926 30.8095C479.7 29.4458 479.47 28.0813 479.235 26.7181C479.369 28.9142 479.48 31.1002 479.597 33.2886C477.576 48.5972 475.325 63.5336 472.873 78.1496C472.094 69.2525 471.207 60.3522 470.213 51.4459C471.745 34.7576 472.899 17.9525 473.58 1H473.576ZM522.695 37.1796C522.434 45.3679 522.074 53.4929 521.616 61.558C517.447 78.0983 512.893 94.2501 508.032 110.086C506.24 102.801 504.337 95.4452 502.286 87.9983C503.458 97.9771 504.579 107.911 505.635 117.792C504.067 122.763 502.466 127.7 500.841 132.612C499.28 125.59 497.616 118.5 495.821 111.324C496.722 120.927 497.574 130.486 498.372 139.996C498.234 140.404 498.091 140.807 497.953 141.215H507.598C507.693 140.845 507.795 140.477 507.89 140.108C507.925 140.477 507.959 140.846 507.995 141.215H522.695V37.1796ZM480.36 50.4371C481.033 69.2426 481.152 87.7742 480.823 106.088C479.493 115.224 478.044 124.269 476.493 133.234C476.017 122.924 475.446 112.608 474.744 102.288C476.98 85.1147 478.879 67.84 480.36 50.4371ZM467.937 73.7227C468.276 83.236 468.521 92.653 468.661 101.964C468.574 102.429 468.483 102.888 468.396 103.353C467.474 100.002 466.536 96.6577 465.569 93.3223C466.409 86.8046 467.202 80.2729 467.937 73.7227ZM422.965 78.5806C424.118 86.8357 425.193 95.0306 426.189 103.169C425.413 112.36 424.555 121.454 423.627 130.466C423.156 129.167 422.682 127.869 422.207 126.571C422.862 110.772 423.158 94.797 422.965 78.5806ZM520.018 84.7457C519.221 94.7405 518.297 104.656 517.241 114.49C515.707 119.515 514.132 124.498 512.538 129.462C512.221 128.019 511.909 126.578 511.582 125.129C514.743 111.776 517.578 98.3228 520.018 84.7457ZM383.572 86.873C385.761 96.5551 387.832 106.167 389.782 115.706C389.582 118.533 389.369 121.347 389.153 124.155C387.528 111.731 385.674 99.3033 383.572 86.873ZM405.122 94.7203C406.764 99.6138 408.368 104.49 409.938 109.348C409.684 116.435 409.354 123.476 408.95 130.469C408.173 128.288 407.394 126.108 406.606 123.931C406.246 114.212 405.757 104.475 405.122 94.7203ZM394.268 101.58C395.608 105.748 396.915 109.899 398.198 114.038C398.097 116.27 397.982 118.495 397.865 120.718C396.764 116.757 395.64 112.793 394.473 108.826C394.415 106.416 394.349 104.001 394.268 101.58ZM440.78 103.15C440.717 111.149 440.556 119.092 440.301 126.979C439.913 124.121 439.524 121.263 439.119 118.407C439.707 113.332 440.259 108.245 440.78 103.15ZM410.931 112.442C411.975 115.698 413.006 118.949 414.015 122.188C413.431 127.857 412.811 133.482 412.173 139.085C411.927 130.213 411.518 121.332 410.931 112.442ZM462.887 112.968C463.484 116.229 464.067 119.486 464.634 122.74C464.07 125.54 463.5 128.328 462.924 131.107C462.363 128.793 461.803 126.481 461.222 124.173C461.789 120.442 462.347 116.708 462.887 112.968ZM399.68 118.854C400.734 122.298 401.776 125.737 402.793 129.162C402.718 132.18 402.637 135.188 402.542 138.183C401.759 135.133 400.952 132.082 400.135 129.029C400.008 125.639 399.858 122.247 399.68 118.854Z" fill="url(#paint1_linear)"/>
<path d="M213.006 1C211.565 13.9416 209.943 26.5884 208.177 39.0016C206.628 26.4871 204.844 13.9627 202.783 1.42638C204.348 18.3857 205.526 34.9508 206.382 51.1873C204.827 61.4146 203.169 71.4726 201.422 81.3882C196.251 64.6161 190.481 48.0421 184 31.7042C189.791 53.0486 194.693 74.211 198.91 95.2328C198.099 99.5734 197.268 103.878 196.425 108.166C192.512 93.9545 188.172 79.8685 183.357 65.9266C183.898 57.7435 184.351 49.5336 184.681 41.285C183.887 48.4254 183.035 55.4683 182.14 62.4433C181.069 59.3985 179.981 56.3591 178.863 53.3285C179.86 57.3808 180.817 61.4227 181.753 65.4606C180.084 78.2217 178.244 90.7057 176.269 102.968C175.073 95.1929 173.811 87.4229 172.462 79.6571C172.178 62.9624 171.396 46.0245 169.974 28.7778C169.728 36.396 169.42 43.9403 169.055 51.4203C168.716 46.0051 168.345 40.5844 167.91 35.1549C167.973 41.9063 167.97 48.5764 167.931 55.1972C164.761 39.1178 161.212 23.0632 157.192 7.03692C161.445 31.1899 164.829 54.6081 167.546 77.4669C167.45 78.9305 167.363 80.4047 167.261 81.8635C165.614 74.6986 163.858 67.5113 161.984 60.2998C161.607 49.3777 161.005 38.3459 160.136 27.1817C159.857 34.732 159.512 42.2032 159.12 49.6192C158.289 46.606 157.44 43.5901 156.563 40.5674C157.355 45.289 158.115 49.9861 158.851 54.6659C157.82 72.9401 156.452 90.8153 154.807 108.362C154.012 106.293 153.21 104.227 152.402 102.162C152.282 101.57 152.164 100.977 152.042 100.384C152.078 100.752 152.105 101.116 152.139 101.484C149.332 94.318 146.449 87.1777 143.489 80.0625C143.105 75.2856 142.698 70.506 142.239 65.7193C142.339 69.7128 142.418 73.682 142.479 77.63C135.536 61.0615 128.145 44.6416 120.194 28.4073C128.44 48.9615 135.847 69.1037 142.603 88.9233C142.659 97.4891 142.623 105.943 142.512 114.311C139.521 106.279 136.437 98.2766 133.245 90.305C132.884 82.7528 132.413 75.1471 131.815 67.4784C131.6 73.3293 131.345 79.1343 131.062 84.9041C126.036 72.5634 120.751 60.2983 115.155 48.1281C120.734 63.066 125.882 77.7764 130.676 92.2994C130.586 93.9485 130.497 95.5986 130.402 97.2413C125.623 81.8379 120.325 66.3837 114.366 50.8634C116.651 59.8461 118.816 68.7562 120.88 77.6067C121.158 80.1482 121.428 82.6824 121.688 85.207C120.742 79.8991 119.738 74.5724 118.662 69.2235C120.714 93.8182 122.056 117.773 122.829 141.215H134.053C134.056 140.993 134.063 140.774 134.065 140.553C134.107 140.774 134.146 140.994 134.187 141.215H183.795C183.178 127.024 182.159 112.828 180.664 98.6253C181.565 89.4334 182.355 80.2054 183.016 70.9384C186.985 88.537 190.396 106.005 193.354 123.365C192.109 129.361 190.832 135.306 189.534 141.215H229.03C229.002 139.719 228.977 138.222 228.942 136.727C232.481 118.707 235.369 100.484 237.491 82.0243C234.65 94.4417 231.58 106.627 228.327 118.626C227.665 103.756 226.611 88.9122 225.104 74.0955C225.112 71.869 225.116 69.6406 225.104 67.4108C224.991 68.4842 224.865 69.5485 224.75 70.6192C223.633 60.1373 222.288 49.6704 220.692 39.2183C221.6 26.9778 222.292 14.6712 222.733 2.28847C221.703 11.9492 220.573 21.4487 219.356 30.8095C219.13 29.4458 218.9 28.0813 218.665 26.7181C218.798 28.9142 218.91 31.1002 219.027 33.2886C217.006 48.5972 214.754 63.5336 212.303 78.1496C211.524 69.2525 210.637 60.3522 209.643 51.4459C211.175 34.7576 212.328 17.9525 213.01 1H213.006ZM262.124 37.1796C261.864 45.3679 261.504 53.4929 261.045 61.558C256.876 78.0983 252.323 94.2501 247.461 110.086C245.67 102.801 243.767 95.4452 241.716 87.9983C242.887 97.9771 244.009 107.911 245.064 117.792C243.497 122.763 241.896 127.7 240.27 132.612C238.71 125.59 237.046 118.5 235.25 111.324C236.152 120.927 237.004 130.486 237.802 139.996C237.664 140.404 237.521 140.807 237.382 141.215H247.027C247.123 140.845 247.225 140.477 247.319 140.108C247.355 140.477 247.389 140.846 247.424 141.215H262.124V37.1796ZM219.79 50.4371C220.462 69.2426 220.582 87.7742 220.252 106.088C218.923 115.224 217.473 124.269 215.923 133.234C215.447 122.924 214.876 112.608 214.174 102.288C216.41 85.1147 218.308 67.84 219.79 50.4371ZM207.367 73.7227C207.705 83.236 207.951 92.653 208.091 101.964C208.004 102.429 207.913 102.888 207.826 103.353C206.904 100.002 205.966 96.6577 204.999 93.3223C205.838 86.8046 206.632 80.2729 207.367 73.7227ZM162.395 78.5806C163.548 86.8357 164.623 95.0306 165.618 103.169C164.842 112.36 163.984 121.454 163.057 130.466C162.585 129.167 162.112 127.869 161.636 126.571C162.292 110.772 162.588 94.797 162.395 78.5806ZM259.448 84.7457C258.651 94.7405 257.726 104.656 256.671 114.49C255.137 119.515 253.562 124.498 251.967 129.462C251.65 128.019 251.338 126.578 251.011 125.129C254.173 111.776 257.008 98.3228 259.448 84.7457ZM123.002 86.873C125.19 96.5551 127.262 106.167 129.212 115.706C129.012 118.533 128.799 121.347 128.583 124.155C126.957 111.731 125.103 99.3033 123.002 86.873ZM144.552 94.7203C146.193 99.6138 147.798 104.49 149.368 109.348C149.113 116.435 148.784 123.476 148.379 130.469C147.603 128.288 146.824 126.108 146.036 123.931C145.675 114.212 145.187 104.475 144.552 94.7203ZM133.698 101.58C135.037 105.748 136.345 109.899 137.628 114.038C137.527 116.27 137.412 118.495 137.295 120.718C136.194 116.757 135.069 112.793 133.903 108.826C133.844 106.416 133.778 104.001 133.698 101.58ZM180.209 103.15C180.147 111.149 179.986 119.092 179.73 126.979C179.342 124.121 178.954 121.263 178.548 118.407C179.136 113.332 179.688 108.245 180.209 103.15ZM150.361 112.442C151.404 115.698 152.436 118.949 153.444 122.188C152.861 127.857 152.241 133.482 151.603 139.085C151.357 130.213 150.948 121.332 150.361 112.442ZM202.316 112.968C202.914 116.229 203.496 119.486 204.064 122.74C203.5 125.54 202.929 128.328 202.353 131.107C201.793 128.793 201.233 126.481 200.651 124.173C201.219 120.442 201.777 116.708 202.316 112.968ZM139.11 118.854C140.164 122.298 141.205 125.737 142.222 129.162C142.148 132.18 142.066 135.188 141.972 138.183C141.188 135.133 140.382 132.082 139.564 129.029C139.438 125.639 139.287 122.247 139.11 118.854Z" fill="url(#paint2_linear)"/>
<path d="M103.085 1C101.582 13.9218 99.8887 26.5493 98.0466 38.9435C96.4299 26.4481 94.5686 13.9429 92.4181 1.42573C94.0516 18.3591 95.2804 34.8989 96.174 51.1105C94.5512 61.3222 92.8206 71.3647 90.9981 81.2652C85.6022 64.5187 79.5816 47.9701 72.8194 31.6572C78.8621 52.9689 83.9764 74.099 88.3769 95.0886C87.5307 99.4226 86.6633 103.721 85.7837 108.002C81.7006 93.8123 77.1723 79.7478 72.148 65.8273C72.7125 57.6566 73.185 49.4593 73.5294 41.2233C72.7013 48.3528 71.8123 55.385 70.8782 62.3493C69.7606 59.3092 68.626 56.2744 67.4591 53.2485C68.4995 57.2945 69.498 61.3302 70.4749 65.362C68.7332 78.1035 66.8134 90.5684 64.7521 102.812C63.5041 95.0487 62.1876 87.2906 60.7796 79.5367C60.4841 62.8675 59.6677 45.9556 58.1842 28.7353C57.9272 36.3418 57.6054 43.8746 57.2254 51.3431C56.8713 45.9362 56.4845 40.5238 56.0306 35.1026C56.0962 41.8437 56.0931 48.5036 56.052 55.1142C52.7449 39.0594 49.0411 23.0294 44.8466 7.02768C49.2848 31.1437 52.815 54.526 55.6509 77.3499C55.5505 78.8112 55.459 80.2832 55.3527 81.7398C53.6344 74.5859 51.8021 67.4095 49.8466 60.209C49.4539 49.3037 48.8248 38.2887 47.9183 27.1417C47.6277 34.6804 47.2676 42.1402 46.8586 49.5448C45.991 46.5362 45.1054 43.5249 44.1903 40.5068C45.017 45.2212 45.8099 49.9111 46.5776 54.5838C45.502 72.83 44.074 90.6778 42.3584 108.198C41.5289 106.132 40.6914 104.069 39.8488 102.007C39.7239 101.416 39.6005 100.824 39.4734 100.232C39.5108 100.6 39.539 100.963 39.5743 101.33C36.645 94.1752 33.6371 87.0458 30.5482 79.9415C30.1476 75.1719 29.7229 70.3996 29.244 65.6202C29.3482 69.6077 29.431 73.5708 29.495 77.5127C22.25 60.9695 14.5376 44.5748 6.24119 28.3654C14.8458 48.8881 22.5748 68.9995 29.6237 88.7888C29.6826 97.3415 29.6443 105.783 29.5293 114.137C26.4086 106.118 23.1904 98.1277 19.8597 90.1683C19.4828 82.6277 18.9909 75.0336 18.3668 67.3766C18.1427 73.2187 17.8773 79.0147 17.5817 84.7757C12.3369 72.4539 6.82266 60.2076 0.983823 48.056C6.80519 62.971 12.1761 77.6589 17.1785 92.1597C17.0851 93.8063 16.992 95.4538 16.8932 97.094C11.9066 81.7142 6.37855 66.2836 0.160156 50.7871C2.5445 59.756 4.80382 68.6525 6.95763 77.4895C7.24693 80.0271 7.5292 82.5574 7.80058 85.0782C6.81294 79.7784 5.76538 74.4598 4.64318 69.1191C6.78458 93.6761 8.18394 117.594 8.99106 141H20.7027C20.7059 140.779 20.7125 140.56 20.7155 140.339C20.7586 140.56 20.7993 140.779 20.8421 141H72.6049C71.9613 126.831 70.8978 112.657 69.3381 98.4759C70.2788 89.298 71.1033 80.0842 71.792 70.8313C75.9342 88.403 79.4934 105.845 82.5791 123.177C81.2801 129.165 79.9485 135.1 78.5937 141H119.805C119.776 139.507 119.75 138.012 119.713 136.519C123.406 118.527 126.42 100.332 128.634 81.9003C125.669 94.2987 122.467 106.466 119.072 118.446C118.381 103.599 117.282 88.7777 115.708 73.9836C115.717 71.7606 115.721 69.5356 115.708 67.3092C115.591 68.3809 115.46 69.4436 115.339 70.5126C114.174 60.0468 112.77 49.5959 111.105 39.1598C112.053 26.9381 112.775 14.6503 113.235 2.2865C112.16 11.9324 110.981 21.4174 109.711 30.7639C109.475 29.4023 109.235 28.0398 108.99 26.6787C109.129 28.8715 109.245 31.0541 109.368 33.2392C107.259 48.5244 104.909 63.4379 102.352 78.0315C101.538 69.1481 100.613 60.2614 99.5759 51.3687C101.175 34.706 102.378 17.9266 103.089 1H103.085ZM154.337 37.1242C154.066 45.3 153.69 53.4126 153.211 61.4653C148.861 77.9803 144.11 94.1074 139.037 109.919C137.168 102.645 135.182 95.3007 133.042 87.8652C134.265 97.8287 135.435 107.748 136.536 117.613C134.9 122.576 133.23 127.506 131.534 132.411C129.906 125.4 128.169 118.32 126.296 111.155C127.236 120.743 128.126 130.287 128.958 139.783C128.814 140.191 128.665 140.593 128.52 141H138.585C138.684 140.631 138.79 140.264 138.889 139.895C138.926 140.263 138.962 140.632 138.999 141H154.337V37.1242ZM110.164 50.3614C110.865 69.1381 110.99 87.6414 110.646 105.927C109.259 115.049 107.747 124.08 106.129 133.032C105.632 122.737 105.036 112.437 104.303 102.133C106.637 84.986 108.618 67.7377 110.164 50.3614ZM97.2014 73.6114C97.5542 83.1101 97.8105 92.5127 97.9565 101.81C97.866 102.274 97.7707 102.732 97.6798 103.196C96.7182 99.8508 95.7391 96.5113 94.7304 93.181C95.6063 86.6733 96.4345 80.1516 97.2014 73.6114ZM50.2756 78.4619C51.4789 86.7043 52.6004 94.8867 53.6389 103.012C52.8295 112.189 51.9342 121.269 50.9663 130.268C50.4744 128.971 49.9801 127.675 49.4841 126.379C50.168 110.604 50.4766 94.6534 50.2756 78.4619ZM151.545 84.6175C150.713 94.5971 149.748 104.497 148.647 114.316C147.046 119.334 145.403 124.309 143.739 129.266C143.408 127.825 143.083 126.386 142.742 124.939C146.04 111.606 148.999 98.1738 151.545 84.6175ZM9.17125 86.7415C11.455 96.4088 13.6167 106.006 15.6513 115.531C15.4425 118.353 15.2203 121.163 14.9949 123.966C13.2985 111.562 11.3642 99.1528 9.17125 86.7415ZM31.6571 94.5768C33.3701 99.4629 35.0445 104.331 36.6828 109.182C36.4172 116.259 36.0729 123.289 35.6511 130.271C34.8409 128.093 34.0284 125.917 33.2058 123.743C32.8297 114.039 32.3202 104.317 31.6571 94.5768ZM20.3316 101.426C21.7298 105.588 23.0936 109.733 24.4328 113.865C24.327 116.094 24.207 118.316 24.0853 120.535C22.936 116.58 21.7631 112.622 20.5461 108.661C20.4847 106.254 20.4159 103.843 20.3316 101.426ZM68.864 102.994C68.7989 110.981 68.6304 118.911 68.3642 126.786C67.9591 123.932 67.5539 121.079 67.1309 118.227C67.7444 113.16 68.3203 108.081 68.864 102.994ZM37.7189 112.271C38.8077 115.523 39.8839 118.769 40.9363 122.003C40.3274 127.662 39.6806 133.279 39.0144 138.874C38.7583 130.015 38.3316 121.148 37.7189 112.271ZM91.9312 112.797C92.5549 116.053 93.1626 119.304 93.7544 122.554C93.1663 125.349 92.5709 128.133 91.9698 130.908C91.385 128.598 90.8003 126.289 90.1938 123.985C90.7864 120.26 91.3686 116.531 91.9312 112.797ZM25.9793 118.674C27.0785 122.112 28.1654 125.546 29.2269 128.966C29.1492 131.979 29.064 134.983 28.9652 137.973C28.1479 134.928 27.306 131.881 26.4534 128.833C26.321 125.448 26.1641 122.061 25.9793 118.674Z" fill="url(#paint3_linear)"/>
<path d="M617.07 27C615.945 39.839 614.678 52.3855 613.298 64.7003C612.088 52.285 610.695 39.86 609.085 27.423C610.308 44.2479 611.228 60.6816 611.897 76.7893C610.682 86.9356 609.386 96.9137 608.022 106.751C603.982 90.1116 599.475 73.6691 594.413 57.4607C598.937 78.6358 602.765 99.6305 606.06 120.486C605.426 124.792 604.777 129.062 604.118 133.317C601.062 119.217 597.672 105.243 593.911 91.4118C594.333 83.2935 594.687 75.1487 594.945 66.9655C594.325 74.0493 593.659 81.0364 592.96 87.9561C592.123 84.9355 591.274 81.9202 590.4 78.9136C591.179 82.9337 591.927 86.9436 592.658 90.9495C591.354 103.609 589.917 115.994 588.374 128.16C587.44 120.446 586.454 112.738 585.4 105.033C585.179 88.471 584.568 71.6675 583.457 54.5575C583.265 62.1153 583.024 69.5998 582.739 77.0205C582.474 71.6482 582.185 66.2705 581.845 60.884C581.894 67.5819 581.892 74.1992 581.861 80.7674C579.385 64.8155 576.613 48.8883 573.473 32.9891C576.795 56.9505 579.438 80.183 581.561 102.861C581.486 104.312 581.417 105.775 581.338 107.222C580.051 100.114 578.68 92.9839 577.216 85.8295C576.922 74.9941 576.451 64.0497 575.772 52.9741C575.555 60.4645 575.285 67.8765 574.979 75.2337C574.329 72.2443 573.666 69.2523 572.981 66.2536C573.6 70.9378 574.194 75.5976 574.768 80.2404C573.963 98.3696 572.894 116.103 571.61 133.511C570.989 131.458 570.362 129.409 569.731 127.36C569.638 126.772 569.545 126.184 569.45 125.596C569.478 125.961 569.499 126.322 569.526 126.687C567.333 119.578 565.081 112.494 562.769 105.436C562.469 100.696 562.151 95.9549 561.792 91.2061C561.87 95.168 561.932 99.1057 561.98 103.022C556.557 86.5852 550.783 70.2956 544.572 54.19C551.014 74.5812 556.8 94.5636 562.077 114.226C562.121 122.724 562.092 131.111 562.006 139.412C559.67 131.444 557.261 123.505 554.767 115.597C554.485 108.105 554.117 100.559 553.65 92.9512C553.482 98.7558 553.283 104.515 553.062 110.239C549.136 97.996 545.008 85.8281 540.637 73.7544C544.995 88.5738 549.015 103.168 552.76 117.575C552.69 119.211 552.62 120.848 552.546 122.478C548.814 107.197 544.675 91.8652 540.02 76.468C541.805 85.3794 543.496 94.2189 545.109 102.999C545.325 105.521 545.537 108.035 545.74 110.539C545 105.273 544.216 99.9889 543.376 94.6825C544.407 110.375 545.204 125.8 545.806 141H550.253C549.202 131.399 548.044 121.797 546.766 112.192C548.475 121.797 550.094 131.333 551.617 140.797C551.613 140.865 551.609 140.932 551.606 141H556.86C556.337 138.657 555.824 136.316 555.281 133.971C555.235 131.58 555.184 129.184 555.121 126.782C556.167 130.918 557.188 135.036 558.191 139.142C558.168 139.763 558.142 140.38 558.118 141H564.484C564.239 134 563.959 126.995 563.599 119.977C564.881 124.832 566.135 129.669 567.361 134.489C567.3 136.667 567.222 138.831 567.149 141H568.302C568.247 139.853 568.196 138.706 568.137 137.558C568.427 138.708 568.707 139.852 568.994 141H577.24C577.535 128.778 577.654 116.445 577.537 103.965C578.438 112.155 579.277 120.285 580.055 128.359C579.773 132.595 579.473 136.804 579.165 141H590.373C590.75 136.787 591.112 132.567 591.452 128.34C591.426 132.577 591.374 136.795 591.304 141H593.032C592.677 135.284 592.281 129.569 591.807 123.851C592.511 114.732 593.128 105.577 593.644 96.3838C596.302 111.348 598.622 126.212 600.69 141H608.378C608.491 140.026 608.61 139.055 608.72 138.081C608.861 139.055 608.993 140.027 609.132 141H618.641C618.437 136.495 618.224 131.991 617.982 127.485C619.729 110.448 621.212 93.3099 622.369 76.045C622.895 94.7014 622.988 113.086 622.731 131.255C622.357 134.519 621.956 137.759 621.558 141H628.929C628.408 127.149 627.626 113.32 626.52 99.5158C626.526 97.3071 626.53 95.0963 626.52 92.8842C626.433 93.9491 626.334 95.0048 626.244 96.0671C625.371 85.6683 624.321 75.2844 623.074 64.9152C623.784 52.7718 624.324 40.5628 624.669 28.2782C623.864 37.8623 622.981 47.2865 622.031 56.5731C621.854 55.2202 621.674 53.8665 621.491 52.5141C621.595 54.6929 621.682 56.8615 621.774 59.0325C620.195 74.2198 618.436 89.0377 616.521 103.538C615.912 94.7113 615.22 85.8815 614.443 77.0459C615.64 60.4899 616.541 43.8181 617.074 27H617.07ZM384.254 62.0213C387.32 84.255 389.801 105.859 391.827 126.976C392.109 131.68 392.361 136.348 392.599 141H397.044C396.366 135.826 395.67 130.653 394.934 125.483C392.697 104.349 389.979 83.2162 386.631 62.086C387.503 70.7303 388.284 79.268 388.998 87.7226C387.515 79.1483 385.938 70.58 384.254 62.0213ZM655.438 62.8927C655.235 71.0161 654.953 79.0766 654.595 87.0777C651.339 103.487 647.782 119.511 643.984 135.221C642.585 127.993 641.098 120.696 639.496 113.308C640.354 122.582 641.173 131.812 641.951 141H648.413C650.223 130.759 651.879 120.458 653.347 110.082C652.725 119.997 652.003 129.834 651.178 139.59C651.065 140.062 650.948 140.529 650.834 141H655.438V62.8927ZM418.389 74.9679C418.47 97.7044 418.051 119.654 417.251 141H420.512C420.356 119.098 419.7 97.0984 418.389 74.9679ZM403.671 76.7893C405.546 98.8065 406.888 120.158 407.822 141H411.033C409.119 119.612 406.717 98.2098 403.671 76.7893ZM437.6 79.0014C439.081 93.68 440.316 108.065 441.351 122.212C439.978 116.13 438.557 110.056 437.085 103.993C436.722 100.345 436.342 96.6956 435.943 93.0437C436.083 95.6919 436.208 98.3157 436.334 100.944C435.801 98.7772 435.262 96.6114 434.717 94.4468C434.45 91.3745 434.166 88.303 433.866 85.2309C433.887 87.2512 433.893 89.2601 433.907 91.2731C433.641 90.2279 433.376 89.181 433.106 88.1364C432.831 85.9638 432.551 83.794 432.258 81.6226C433.011 97.6575 433.418 113.475 433.546 129.119C433.448 133.093 433.328 137.051 433.196 141H440.191C439.603 132.514 438.935 124.02 438.171 115.518C439.702 124.091 441.139 132.581 442.5 141H445.743C443.537 120.332 440.873 99.6666 437.6 79.0014ZM444.353 85.3025C446.521 101.122 448.392 116.62 450.016 131.853C449.926 134.913 449.813 137.957 449.7 141H453.849C453.403 137.979 452.952 134.959 452.486 131.939C452.015 121.779 451.372 111.616 450.536 101.446C450.512 107.159 450.435 112.834 450.329 118.486C448.496 107.413 446.516 96.351 444.353 85.3025ZM465.43 86.4421C466.599 105.093 467.392 123.24 467.893 141H470.644C469.302 122.844 467.602 104.661 465.43 86.4421ZM433.271 89.4401C433.49 90.5479 433.698 91.6492 433.914 92.7547C433.917 93.4545 433.927 94.1594 433.93 94.8582C433.716 93.0524 433.497 91.2449 433.271 89.4401ZM491.393 89.6758C491.772 95.0503 492.111 100.373 492.43 105.669C492.399 105.44 492.371 105.212 492.34 104.982C492.9 117.107 493.257 129.105 493.45 141H496.787C495.342 123.912 493.574 106.806 491.393 89.6758ZM435.076 98.76C435.597 101.488 436.11 104.21 436.61 106.92C436.986 115.443 437.289 123.866 437.525 132.198C437.235 128.354 436.92 124.511 436.582 120.671C436.171 113.366 435.672 106.064 435.076 98.76ZM612.666 99.146C612.93 108.584 613.122 117.926 613.231 127.163C613.163 127.625 613.092 128.08 613.024 128.541C612.304 125.217 611.571 121.899 610.816 118.59C611.472 112.124 612.092 105.644 612.666 99.146ZM481.699 100.501C482.891 111.83 483.896 123.069 484.753 134.234C484.718 136.495 484.674 138.748 484.626 141H488.561C488.128 138.014 487.684 135.032 487.221 132.052C486.599 122.084 485.81 112.115 484.835 102.149C484.893 107.42 484.904 112.661 484.893 117.883C483.889 112.077 482.83 106.281 481.699 100.501ZM521.143 101.044C521.403 104.914 521.646 108.762 521.875 112.592C521.578 111.246 521.281 109.9 520.979 108.554C521.224 110.041 521.454 111.514 521.694 112.996C520.764 111.161 519.825 109.325 518.877 107.493C519.948 110.246 521.004 112.993 522.052 115.738C522.544 124.259 522.947 132.665 523.298 141H527.747C526.316 133.615 524.82 126.238 523.24 118.872C526.05 126.279 528.769 133.651 531.424 141H535.114C531.183 132.361 527.092 123.755 522.794 115.192C522.269 110.477 521.727 105.763 521.143 101.044ZM512.244 101.162C513.097 114.694 513.737 127.947 514.23 141H516.305C515.982 137.233 515.648 133.466 515.29 129.697C516.658 133.474 518.001 137.24 519.328 141H521.051C519.133 136.844 517.187 132.694 515.181 128.553C514.305 119.43 513.336 110.3 512.244 101.162ZM536.887 101.834C538.012 115.123 538.936 128.162 539.7 141H541.753C540.345 127.951 538.738 114.897 536.887 101.834ZM351.63 102.965C352.254 106.833 352.857 110.685 353.45 114.527C352.575 111.503 351.683 108.478 350.77 105.449C352.913 116.195 354.921 126.837 356.817 137.394C356.986 138.601 357.14 139.795 357.307 141H360.648C360.574 140.708 360.501 140.418 360.427 140.126C357.779 127.797 354.863 115.412 351.63 102.965ZM394.589 105.928C397.357 117.775 399.91 129.448 402.313 141H404.435C404.338 140.73 404.244 140.459 404.146 140.189C401.14 128.721 397.969 117.296 394.589 105.928ZM462.938 107.322C461.958 118.699 460.811 129.911 459.538 141H462.281C462.714 129.816 462.944 118.593 462.938 107.322ZM636.196 107.382C634.144 118.776 631.932 129.965 629.602 141H632.466C633.923 129.877 635.174 118.675 636.196 107.382ZM379.789 108.461C380.468 119.439 381.021 130.271 381.484 141H384.203C382.931 130.236 381.476 119.396 379.789 108.461ZM511.725 113.239C511.476 122.581 511.11 131.827 510.654 141H512.915C512.664 131.757 512.278 122.505 511.725 113.239ZM537.896 115.724C537.735 124.222 537.477 132.64 537.143 141H539.219C538.901 132.582 538.466 124.157 537.896 115.724ZM443.942 116.51C445.073 124.714 446.096 132.873 447.042 141H449.167C447.547 132.804 445.814 124.638 443.942 116.51ZM368.047 116.535C369.238 124.754 370.354 132.906 371.407 141H373.598C371.873 132.875 370.03 124.721 368.047 116.535ZM402.598 119.875C403.741 126.967 404.813 133.998 405.852 141H407.795C406.157 133.977 404.432 126.938 402.598 119.875ZM481.974 120.768C481.726 127.56 481.417 134.301 481.059 141H482.725C482.551 134.263 482.311 127.521 481.974 120.768ZM428.942 124.528C429.615 130.05 430.253 135.539 430.863 141H432.342C431.261 135.524 430.141 130.037 428.942 124.528ZM455.206 128.352C455.756 132.586 456.285 136.801 456.799 141H457.955C457.069 136.792 456.162 132.579 455.206 128.352ZM410.833 128.673C411.652 132.8 412.438 136.902 413.219 141H414.425C413.259 136.895 412.069 132.788 410.833 128.673ZM399.09 130.393C399.487 133.943 399.866 137.475 400.238 141H401.209C400.524 137.47 399.823 133.937 399.09 130.393ZM509.077 136C509.329 137.673 509.569 139.334 509.813 141H510.298C509.895 139.334 509.491 137.668 509.077 136ZM634.446 136.449C634.559 137.969 634.663 139.482 634.774 141H635.317C635.025 139.482 634.747 137.975 634.446 136.449ZM475.768 139.271C475.838 139.85 475.901 140.422 475.971 141H476.134C476.009 140.423 475.893 139.849 475.768 139.271Z" fill="url(#paint4_linear)"/>
<path d="M327.474 26C326.348 38.839 325.081 51.3855 323.702 63.7003C322.491 51.285 321.098 38.86 319.488 26.423C320.711 43.2479 321.631 59.6816 322.3 75.7893C321.085 85.9356 319.79 95.9137 318.425 105.751C314.386 89.1116 309.879 72.6691 304.816 56.4607C309.34 77.6358 313.169 98.6305 316.463 119.486C315.829 123.792 315.18 128.062 314.522 132.317C311.465 118.217 308.075 104.243 304.314 90.4118C304.736 82.2935 305.09 74.1487 305.348 65.9655C304.728 73.0493 304.063 80.0364 303.363 86.9561C302.527 83.9355 301.677 80.9202 300.804 77.9136C301.583 81.9337 302.33 85.9436 303.061 89.9495C301.758 102.609 300.32 114.994 298.777 127.16C297.843 119.446 296.857 111.738 295.803 104.033C295.582 87.471 294.971 70.6675 293.86 53.5575C293.668 61.1153 293.427 68.5998 293.143 76.0205C292.878 70.6482 292.588 65.2705 292.248 59.884C292.297 66.5819 292.295 73.1992 292.264 79.7674C289.789 63.8155 287.016 47.8883 283.876 31.9891C287.198 55.9505 289.841 79.183 291.964 101.861C291.889 103.312 291.82 104.775 291.741 106.222C290.454 99.1142 289.083 91.9839 287.619 84.8295C287.325 73.9941 286.854 63.0497 286.175 51.9741C285.958 59.4645 285.688 66.8765 285.382 74.2337C284.733 71.2443 284.07 68.2523 283.384 65.2536C284.003 69.9378 284.597 74.5976 285.172 79.2404C284.367 97.3696 283.297 115.103 282.013 132.511C281.392 130.458 280.765 128.409 280.134 126.36C280.041 125.772 279.949 125.184 279.853 124.596C279.881 124.961 279.903 125.322 279.929 125.687C277.736 118.578 275.484 111.494 273.172 104.436C272.872 99.6965 272.554 94.9549 272.196 90.2061C272.274 94.168 272.336 98.1057 272.384 102.022C266.96 85.5852 261.186 69.2956 254.976 53.19C261.417 73.5812 267.203 93.5636 272.48 113.226C272.524 121.724 272.495 130.111 272.409 138.412C270.073 130.444 267.664 122.505 265.17 114.597C264.888 107.105 264.52 99.5591 264.053 91.9512C263.885 97.7558 263.686 103.515 263.465 109.239C259.539 96.996 255.411 84.8281 251.04 72.7544C255.398 87.5738 259.418 102.168 263.163 116.575C263.093 118.211 263.024 119.848 262.95 121.478C259.217 106.197 255.078 90.8652 250.423 75.468C252.208 84.3794 253.9 93.2189 255.512 101.999C255.728 104.521 255.94 107.035 256.143 109.539C255.404 104.273 254.619 98.9889 253.779 93.6825C254.81 109.375 255.608 124.8 256.209 140H260.657C259.606 130.399 258.448 120.797 257.169 111.192C258.879 120.797 260.497 130.333 262.02 139.797C262.016 139.865 262.013 139.932 262.009 140H267.263C266.74 137.657 266.227 135.316 265.684 132.971C265.638 130.58 265.587 128.184 265.524 125.782C266.57 129.918 267.591 134.036 268.594 138.142C268.572 138.763 268.545 139.38 268.522 140H274.887C274.642 133 274.362 125.995 274.002 118.977C275.284 123.832 276.538 128.669 277.764 133.489C277.703 135.667 277.625 137.831 277.552 140H278.705C278.65 138.853 278.6 137.706 278.54 136.558C278.83 137.708 279.11 138.852 279.397 140H287.643C287.938 127.778 288.057 115.445 287.94 102.965C288.841 111.155 289.68 119.285 290.458 127.359C290.176 131.595 289.877 135.804 289.568 140H300.776C301.153 135.787 301.515 131.567 301.855 127.34C301.829 131.577 301.777 135.795 301.708 140H303.435C303.08 134.284 302.684 128.569 302.21 122.851C302.915 113.732 303.532 104.577 304.047 95.3838C306.705 110.348 309.025 125.212 311.093 140H318.782C318.894 139.026 319.013 138.055 319.124 137.081C319.264 138.055 319.396 139.027 319.535 140H329.044C328.84 135.495 328.627 130.991 328.386 126.485C330.133 109.448 331.615 92.3099 332.773 75.045C333.298 93.7014 333.391 112.086 333.134 130.255C332.76 133.519 332.359 136.759 331.962 140H339.332C338.812 126.149 338.03 112.32 336.923 98.5158C336.93 96.3071 336.933 94.0963 336.923 91.8842C336.836 92.9491 336.737 94.0048 336.647 95.0671C335.774 84.6683 334.724 74.2844 333.478 63.9152C334.187 51.7718 334.728 39.5628 335.072 27.2782C334.267 36.8623 333.384 46.2865 332.434 55.5731C332.257 54.2202 332.078 52.8665 331.894 51.5141C331.998 53.6929 332.085 55.8615 332.177 58.0325C330.598 73.2198 328.839 88.0377 326.924 102.538C326.316 93.7113 325.623 84.8815 324.847 76.0459C326.043 59.4899 326.944 42.8181 327.477 26H327.474ZM365.841 61.8927C365.638 70.0161 365.357 78.0766 364.998 86.0777C361.742 102.487 358.185 118.511 354.388 134.221C352.988 126.993 351.502 119.696 349.899 112.308C350.757 121.582 351.576 130.812 352.355 140H358.816C360.626 129.759 362.282 119.458 363.751 109.082C363.128 118.997 362.406 128.834 361.581 138.59C361.468 139.062 361.352 139.529 361.238 140H365.841V61.8927ZM323.069 98.146C323.333 107.584 323.525 116.926 323.634 126.163C323.567 126.625 323.495 127.08 323.427 127.541C322.707 124.217 321.974 120.899 321.219 117.59C321.875 111.124 322.495 104.644 323.069 98.146ZM231.546 100.044C231.806 103.914 232.049 107.762 232.278 111.592C231.982 110.246 231.685 108.9 231.382 107.554C231.627 109.041 231.857 110.514 232.097 111.996C231.167 110.161 230.228 108.325 229.28 106.493C230.351 109.246 231.407 111.993 232.455 114.738C232.947 123.259 233.351 131.665 233.701 140H238.151C236.719 132.615 235.223 125.238 233.643 117.872C236.453 125.279 239.172 132.651 241.828 140H245.518C241.587 131.361 237.495 122.755 233.197 114.192C232.672 109.477 232.13 104.763 231.546 100.044ZM222.647 100.162C223.5 113.694 224.141 126.947 224.633 140H226.708C226.386 136.233 226.051 132.466 225.693 128.697C227.061 132.474 228.404 136.24 229.732 140H231.455C229.536 135.844 227.59 131.694 225.584 127.553C224.709 118.43 223.74 109.3 222.647 100.162ZM247.29 100.834C248.415 114.123 249.34 127.162 250.104 140H252.156C250.748 126.951 249.141 113.897 247.29 100.834ZM346.6 106.382C344.547 117.776 342.335 128.965 340.005 140H342.87C344.326 128.877 345.577 117.675 346.6 106.382ZM222.128 112.239C221.879 121.581 221.514 130.827 221.057 140H223.318C223.067 130.757 222.682 121.505 222.128 112.239ZM248.299 114.724C248.138 123.222 247.88 131.64 247.546 140H249.622C249.304 131.582 248.869 123.157 248.299 114.724ZM219.48 135C219.732 136.673 219.972 138.334 220.216 140H220.701C220.298 138.334 219.894 136.668 219.48 135ZM344.849 135.449C344.962 136.969 345.067 138.482 345.177 140H345.72C345.428 138.482 345.15 136.975 344.849 135.449Z" fill="url(#paint5_linear)"/>
<path d="M1366.58 26.9746C1364.82 42.7789 1362.84 58.2233 1360.68 73.3823C1358.79 58.0996 1356.61 42.8047 1354.09 27.4953C1356 48.2061 1357.44 68.4354 1358.49 88.2635C1356.59 100.753 1354.56 113.036 1352.43 125.145C1346.11 104.663 1339.07 84.4225 1331.15 64.4707C1338.09 90.041 1343.98 115.396 1349.06 140.587H1357.04C1356.96 140.298 1356.88 140.007 1356.8 139.719C1357.82 131.759 1358.79 123.783 1359.69 115.784C1359.99 124.121 1360.2 132.375 1360.38 140.587H1369.26C1371.44 122.936 1373.34 105.199 1374.86 87.3473C1375.5 105.289 1375.72 123.021 1375.6 140.587H1383.48C1382.87 132.465 1382.17 124.348 1381.35 116.239C1381.36 113.52 1381.36 110.799 1381.35 108.076C1381.21 109.387 1381.06 110.686 1380.92 111.994C1379.55 99.1932 1377.91 86.411 1375.96 73.6469C1377.07 58.6988 1377.92 43.67 1378.45 28.5481C1377.2 40.3458 1375.82 51.9466 1374.33 63.378C1374.05 61.7127 1373.77 60.0463 1373.49 58.3816C1373.65 61.0636 1373.78 63.733 1373.93 66.4055C1371.46 85.1005 1368.71 103.341 1365.72 121.19C1364.76 110.325 1363.68 99.4557 1362.47 88.5793C1364.34 68.1995 1365.75 47.6771 1366.58 26.9746H1366.58ZM1298.41 34.3469C1303.6 63.8426 1307.74 92.4409 1311.05 120.356C1310.94 122.144 1310.83 123.944 1310.71 125.725C1308.7 116.976 1306.55 108.198 1304.26 99.3917C1303.8 86.0536 1303.07 72.5815 1302 58.9478C1301.66 68.1682 1301.24 77.2921 1300.76 86.3486C1299.75 82.6687 1298.71 78.9857 1297.64 75.2944C1298.61 81.0604 1299.54 86.7966 1300.44 92.5116C1299.52 108.787 1298.38 124.797 1297.05 140.587H1304.79C1304.83 134.322 1304.84 128.039 1304.77 121.716C1305.65 128.038 1306.48 134.322 1307.29 140.587H1319.98C1319.04 134.733 1318.08 128.88 1317.06 123.031C1316.71 102.643 1315.76 81.9587 1314.02 60.8969C1313.72 70.2003 1313.34 79.4135 1312.9 88.548C1312.49 81.9349 1312.03 75.3152 1311.5 68.6846C1311.58 76.9295 1311.57 85.0751 1311.52 93.1603C1307.65 73.5241 1303.32 53.9183 1298.41 34.3469ZM1253.23 60.4445C1263.3 85.5454 1272.34 110.143 1280.59 134.347C1280.61 136.44 1280.6 138.504 1280.6 140.587H1288.62C1286.34 134.888 1284.04 129.198 1281.68 123.526C1281.21 117.692 1280.71 111.856 1280.15 106.01C1280.27 110.887 1280.37 115.734 1280.44 120.555C1271.96 100.322 1262.94 80.2699 1253.23 60.4445ZM1002.57 70.0845C1006.78 94.1544 1010.26 117.596 1013.2 140.587H1018.21C1014.92 117.111 1011.01 93.6358 1006.28 70.1642C1007.65 80.8051 1008.87 91.3146 1009.98 101.722C1007.67 91.1674 1005.2 80.6201 1002.57 70.0845ZM1426.56 71.1572C1426.24 81.1568 1425.8 91.0791 1425.24 100.928C1421.86 114.354 1418.25 127.554 1414.48 140.587H1421.17C1421.9 136.814 1422.62 133.034 1423.3 129.245C1422.99 133.041 1422.65 136.81 1422.31 140.587H1426.56V71.1572ZM1331.98 76.1707C1331.01 84.8906 1329.97 93.4915 1328.88 102.009C1327.57 98.2911 1326.24 94.5794 1324.88 90.8784C1326.1 95.827 1327.26 100.763 1328.41 105.694C1326.86 117.51 1325.2 129.13 1323.43 140.587H1327.59C1328.47 131.215 1329.28 121.819 1329.95 112.384C1332.08 121.816 1334.05 131.213 1335.93 140.587H1341.36C1337.94 129.074 1334.29 117.626 1330.37 106.263C1331.03 96.2699 1331.58 86.2439 1331.98 76.1707ZM1247.07 84.5275C1253.89 102.77 1260.17 120.734 1266.03 138.47C1265.99 139.176 1265.95 139.88 1265.91 140.587H1270.96C1270.36 139.07 1269.77 137.549 1269.17 136.034C1268.72 126.811 1268.15 117.523 1267.42 108.158C1267.16 115.303 1266.85 122.392 1266.5 129.439C1260.36 114.368 1253.91 99.3899 1247.07 84.5275ZM1055.94 86.0214C1056.02 104.619 1055.75 122.778 1055.2 140.587H1058.75C1058.22 122.462 1057.31 104.278 1055.94 86.0214ZM1246.11 87.868C1248.9 98.8376 1251.54 109.719 1254.06 120.527C1254.4 123.631 1254.73 126.725 1255.05 129.808C1253.9 123.326 1252.67 116.821 1251.36 110.289C1252.21 120.479 1252.95 130.571 1253.6 140.587H1258.09C1257.62 137.672 1257.15 134.758 1256.66 131.843C1257.32 134.768 1257.94 137.672 1258.59 140.587H1264.45C1258.93 123.073 1252.88 105.506 1246.11 87.868ZM1032.93 88.2635C1034.85 106.049 1036.38 123.452 1037.64 140.587H1041.13C1038.78 123.154 1036.08 105.713 1032.93 88.2635ZM1085.98 90.9865C1088.13 107.819 1089.94 124.326 1091.49 140.587H1094.81C1092.23 124.053 1089.3 107.52 1085.98 90.9865ZM1077.62 94.2131C1078.55 109.831 1079.13 125.277 1079.44 140.587H1084.25C1083.63 132.16 1082.9 123.735 1082.03 115.309C1082.84 118.667 1083.64 122.017 1084.43 125.353C1084.71 130.46 1084.97 135.536 1085.2 140.587H1087.37C1087.2 139.037 1087.04 137.488 1086.87 135.937C1087.22 137.494 1087.55 139.034 1087.89 140.587H1090.79C1088.97 134.3 1087.1 128.02 1085.17 121.75C1084.6 117.259 1084.01 112.767 1083.38 108.272C1083.6 111.532 1083.8 114.762 1083.99 117.997C1083.16 115.33 1082.32 112.664 1081.47 109.999C1081.05 106.217 1080.61 102.436 1080.14 98.6547C1080.17 101.142 1080.18 103.615 1080.2 106.092C1079.78 104.806 1079.37 103.517 1078.95 102.231C1078.52 99.5569 1078.08 96.886 1077.62 94.2131ZM1096.53 98.7429C1099 112.892 1101.21 126.828 1103.21 140.587H1108.18C1107.61 133.265 1106.96 125.941 1106.2 118.615C1106.16 125.647 1106.04 132.633 1105.88 139.591C1103.01 125.96 1099.91 112.343 1096.53 98.7429ZM1129.49 100.146C1130.58 113.838 1131.44 127.297 1132.15 140.587H1134.86C1133.31 127.12 1131.53 113.641 1129.49 100.146ZM1079.2 103.836H1079.21C1079.55 105.2 1079.87 106.556 1080.21 107.916C1080.22 108.778 1080.23 109.645 1080.23 110.506C1079.9 108.283 1079.56 106.058 1079.2 103.836ZM1170.08 104.126C1170.67 110.742 1171.2 117.294 1171.7 123.813C1171.65 123.531 1171.61 123.25 1171.56 122.968C1171.91 128.865 1172.2 134.735 1172.45 140.587H1175.35C1173.78 128.442 1172.05 116.289 1170.08 104.126ZM1154.92 117.451C1155.96 125.197 1156.9 132.906 1157.76 140.587H1162.16C1161.47 133.551 1160.7 126.514 1159.83 119.48C1159.92 125.969 1159.93 132.42 1159.92 138.848C1158.35 131.701 1156.69 124.567 1154.92 117.451ZM1216.59 118.12C1217 122.884 1217.38 127.621 1217.74 132.335C1217.27 130.678 1216.81 129.021 1216.34 127.364C1216.72 129.195 1217.08 131.009 1217.45 132.833C1216 130.573 1214.53 128.313 1213.05 126.058C1214.73 129.447 1216.38 132.829 1218.01 136.208C1218.12 137.677 1218.21 139.122 1218.31 140.587H1220.01C1219.96 140.413 1219.92 140.239 1219.87 140.066C1219.96 140.24 1220.04 140.413 1220.12 140.587H1222.35C1221.29 138.903 1220.25 137.218 1219.17 135.536C1218.35 129.732 1217.51 123.929 1216.59 118.12ZM1202.68 118.265C1203.28 125.775 1203.8 133.202 1204.28 140.587H1205.81C1204.83 133.15 1203.81 125.71 1202.68 118.265ZM1241.21 119.093C1241.99 126.322 1242.68 133.472 1243.34 140.587H1244.85C1243.7 133.424 1242.5 126.259 1241.21 119.093ZM951.561 120.484C952.535 125.247 953.479 129.987 954.405 134.717C953.038 130.995 951.642 127.271 950.215 123.543C951.661 129.251 953.05 134.925 954.42 140.587H957.91C955.878 133.9 953.776 127.2 951.561 120.484ZM1018.73 124.132C1020.36 129.647 1021.94 135.126 1023.49 140.587H1024.77C1022.8 135.093 1020.79 129.605 1018.73 124.132ZM1125.59 125.848C1125.05 130.787 1124.47 135.694 1123.87 140.587H1125.46C1125.55 135.681 1125.59 130.768 1125.59 125.848ZM1396.48 125.922C1395.35 130.843 1394.19 135.724 1393 140.587H1394.65C1395.3 135.712 1395.91 130.824 1396.48 125.922ZM995.586 127.251C995.937 131.713 996.268 136.158 996.58 140.587H998.089C997.289 136.152 996.46 131.709 995.586 127.251ZM1201.87 133.132C1201.78 135.623 1201.69 138.106 1201.59 140.587H1202.38C1202.21 138.102 1202.06 135.618 1201.87 133.132ZM1401.64 133.217C1401.93 135.679 1402.2 138.129 1402.49 140.587H1403.61C1402.95 138.132 1402.32 135.688 1401.64 133.217ZM1242.79 136.191C1242.75 137.66 1242.7 139.121 1242.66 140.587H1243.13C1243.02 139.121 1242.91 137.656 1242.79 136.191ZM1095.89 137.158C1096.09 138.303 1096.27 139.443 1096.47 140.587H1096.87C1096.54 139.444 1096.22 138.299 1095.89 137.158ZM977.229 137.189C977.438 138.325 977.638 139.453 977.844 140.587H978.248C977.905 139.454 977.578 138.323 977.229 137.189Z" fill="url(#paint6_linear)"/>
<path d="M1385.89 0C1384.3 10.0752 1382.51 19.9209 1380.56 29.5847C1378.85 19.8421 1376.87 10.0916 1374.6 0.331944C1376.33 13.535 1377.63 26.4311 1378.57 39.0714C1376.86 47.0335 1375.02 54.8638 1373.09 62.5832C1367.38 49.5259 1361 36.6228 1353.84 23.9036C1360.24 40.5204 1365.66 56.9957 1370.32 73.3614C1369.42 76.7406 1368.5 80.0917 1367.57 83.4304C1363.25 72.3662 1358.45 61.4001 1353.13 50.5462C1353.73 44.1755 1354.23 37.784 1354.6 31.3624C1353.72 36.9212 1352.78 42.4042 1351.79 47.8344C1350.61 45.464 1349.4 43.0978 1348.17 40.7384C1349.27 43.8932 1350.33 47.0398 1351.36 50.1834C1349.52 60.118 1347.48 69.837 1345.3 79.3836C1343.98 73.3303 1342.59 67.2813 1341.1 61.2355C1340.78 48.2385 1339.92 35.0522 1338.35 21.6253C1338.08 27.5562 1337.73 33.4296 1337.33 39.2528C1336.96 35.037 1336.55 30.817 1336.07 26.59C1336.14 31.846 1336.13 37.0388 1336.09 42.1932C1332.59 29.6751 1328.66 17.1765 1324.22 4.69982C1328.92 23.5032 1332.66 41.7345 1335.66 59.5304C1335.56 60.6698 1335.46 61.8175 1335.35 62.9533C1333.53 57.3753 1331.59 51.7799 1329.52 46.1656C1329.1 37.6626 1328.43 29.0742 1327.47 20.3828C1327.17 26.2608 1326.79 32.0772 1326.35 37.8507C1325.43 35.5048 1324.5 33.1569 1323.53 30.8037C1324.4 34.4795 1325.24 38.1363 1326.05 41.7796C1324.92 56.0062 1323.4 69.9223 1321.59 83.5828C1320.71 81.9718 1319.82 80.3637 1318.93 78.756C1318.8 78.2946 1318.67 77.8332 1318.53 77.372C1318.57 77.6584 1318.6 77.9418 1318.64 78.2281C1315.54 72.6492 1312.35 67.0904 1309.08 61.5511C1308.66 57.8322 1308.21 54.1113 1307.7 50.3847C1307.81 53.4938 1307.9 56.5838 1307.97 59.6574C1300.29 46.7586 1292.13 33.9756 1283.34 21.3369C1292.45 37.3387 1300.64 53.0195 1308.1 68.4494C1308.16 75.1179 1308.13 81.6997 1308 88.2136C1304.7 81.9608 1301.29 75.731 1297.76 69.525C1297.36 63.6456 1296.84 57.7244 1296.18 51.7542C1295.95 56.3093 1295.66 60.8285 1295.35 65.3204C1289.8 55.713 1283.96 46.1645 1277.78 36.6898C1283.94 48.3191 1289.63 59.7714 1294.92 71.0777C1294.83 72.3616 1294.73 73.6461 1294.62 74.925C1289.34 62.9333 1283.49 50.902 1276.9 38.8193C1279.43 45.8124 1281.82 52.7491 1284.1 59.6393C1284.41 61.6179 1284.71 63.5907 1284.99 65.5562C1283.95 61.4239 1282.84 57.277 1281.65 53.1128C1283.97 72.6698 1285.47 91.7095 1286.31 110.332C1284.94 108.489 1283.54 106.647 1282.14 104.807C1279.56 89.4569 1276.4 74.0978 1272.47 58.7251C1274.55 72.347 1276.15 85.6399 1277.39 98.6744C1277 98.1869 1276.61 97.6997 1276.23 97.2124C1275.78 88.0277 1275.02 78.8317 1273.9 69.6248C1273.63 77.3832 1273.19 85.0621 1272.6 92.6758C1266.25 84.8145 1259.58 76.9898 1252.54 69.2076C1251.8 65.5075 1251.03 61.8079 1250.2 58.1047C1250.57 61.1422 1250.91 64.1614 1251.24 67.167C1250.82 66.1104 1250.4 65.0542 1249.97 63.9981C1250.32 65.1653 1250.64 66.3213 1250.98 67.4844C1249.67 66.0438 1248.34 64.603 1247 63.1655C1248.51 65.3258 1250.01 67.4821 1251.49 69.6357C1252.33 77.7627 1253.03 85.7827 1253.58 93.6934C1249.77 89.0146 1245.83 84.3473 1241.77 79.6919C1240.53 72.5331 1239.16 65.3687 1237.61 58.1972C1239.44 74.2651 1240.64 89.8696 1241.34 105.11C1240.56 103.112 1239.75 101.109 1238.93 99.1061C1238.68 88.6462 1238.01 78.1711 1236.88 67.6748C1236.51 75.3314 1235.97 82.9086 1235.28 90.4212C1234.58 88.7949 1233.86 87.1657 1233.14 85.5363C1233.8 87.968 1234.43 90.387 1235.06 92.8046C1234.32 100.537 1233.42 108.2 1232.38 115.796C1229.25 107.199 1225.83 98.566 1222.05 89.8843C1225.31 102.406 1228.18 114.732 1230.74 126.902C1230 131.627 1229.2 136.321 1228.36 141H1254.52C1253.23 130.431 1251.55 119.632 1249.38 108.535C1249.27 114.371 1249.12 120.176 1248.94 125.965C1248.46 124.533 1247.98 123.101 1247.47 121.667C1246.09 107.994 1244.27 94.3027 1241.92 80.5898C1246.06 86.928 1250.07 93.237 1253.95 99.5161C1254.82 113.644 1255.24 127.448 1255.32 141H1278.03C1278.03 140.948 1278.04 140.896 1278.04 140.844C1278.07 140.896 1278.1 140.948 1278.13 141H1373.26C1373.31 140.796 1373.37 140.593 1373.42 140.389C1373.46 140.593 1373.49 140.796 1373.52 141H1440.16V28.1663C1439.87 34.5409 1439.47 40.8663 1438.97 47.1451C1434.36 60.022 1429.33 72.5964 1423.96 84.925C1421.98 79.253 1419.88 73.5268 1417.61 67.7293C1418.91 75.4978 1420.14 83.2317 1421.31 90.9236C1419.58 94.7938 1417.81 98.6373 1416.01 102.462C1414.29 96.9952 1412.45 91.4752 1410.47 85.8882C1411.46 93.3645 1412.41 100.806 1413.29 108.21C1410.19 114.655 1407.01 121.041 1403.76 127.37C1403.82 120.129 1403.74 112.893 1403.5 105.665C1407.41 91.6363 1410.6 77.4498 1412.94 63.0784C1409.8 72.7455 1406.41 82.2321 1402.82 91.573C1402.09 79.9968 1400.92 68.4408 1399.26 56.9057C1399.27 55.1724 1399.27 53.4376 1399.26 51.7016C1399.13 52.5373 1398.99 53.3658 1398.87 54.1994C1397.63 46.0391 1396.15 37.8905 1394.38 29.7534C1395.39 20.2241 1396.15 10.6432 1396.64 1.00309C1395.5 8.52407 1394.25 15.9196 1392.91 23.2071C1392.66 22.1454 1392.4 21.0831 1392.14 20.0218C1392.29 21.7316 1392.41 23.4333 1392.54 25.137C1390.31 37.055 1387.82 48.6832 1385.11 60.0619C1384.25 53.1354 1383.27 46.2064 1382.17 39.2728C1383.87 26.2807 1385.14 13.1977 1385.89 0H1385.89ZM1056.58 27.4824C1060.91 44.93 1064.42 61.8836 1067.29 78.4549C1069.61 99.9166 1070.87 120.682 1071.46 141H1084.97C1081.4 119.724 1077.12 98.4784 1071.68 77.2831C1068.52 60.6986 1064.68 44.1148 1059.94 27.5332C1061.17 34.3167 1062.28 41.0165 1063.29 47.6512C1061.19 40.9226 1058.96 34.1988 1056.58 27.4824ZM1104.86 37.6421C1104.99 57.9599 1104.21 77.4792 1102.75 96.407C1100.03 90.8767 1097.18 85.3373 1094.17 79.7863C1097 87.6961 1099.67 95.5339 1102.19 103.313C1101.83 107.429 1101.45 111.521 1101.03 115.584C1100.09 113.923 1099.15 112.263 1098.18 110.603C1097.85 109.697 1097.51 108.792 1097.17 107.885C1094.13 84.9694 1089.93 62.0331 1084.04 39.0714C1086.7 56.3884 1088.6 73.1814 1089.92 89.5723C1087.59 84.0238 1085.14 78.4625 1082.53 72.8826C1084.66 80.2475 1086.67 87.5472 1088.55 94.7909C1087.29 92.8016 1086.01 90.8124 1084.72 88.8231C1080.46 79.824 1075.98 70.8586 1071.2 61.9375C1079 80.4541 1085.7 98.4795 1091.59 116.139C1091.76 119.909 1091.91 123.664 1092.02 127.396C1088.11 112.129 1083.38 96.7234 1077.56 81.1358C1081.69 101.587 1084.84 121.497 1087.25 141H1140.05C1138.93 117.223 1136.72 93.3859 1132.84 69.4634C1135.1 76.4785 1137.22 83.4265 1139.22 90.3105C1141.12 107.618 1142.33 124.469 1143.06 141H1183.64C1181.82 109.643 1178.18 78.2102 1171.4 46.6463C1174.88 77.4803 1176.08 106.625 1175.84 134.7C1175.75 122.567 1175.16 110.076 1174 97.1761C1173.6 100.395 1173.19 103.602 1172.77 106.804C1172.75 105.199 1172.73 103.598 1172.69 101.979C1171.8 106.662 1170.9 111.325 1169.98 115.974C1168.64 111.696 1167.24 107.408 1165.77 103.109C1167.14 89.8241 1167.89 76.4697 1167.87 63.0313C1166.29 73.2666 1164.4 83.3403 1162.28 93.2817C1160.59 88.712 1158.81 84.1312 1156.94 79.5341C1158.43 85.9011 1159.82 92.2149 1161.13 98.4858C1160.54 101.147 1159.92 103.799 1159.29 106.442C1157.39 98.4043 1155.32 90.3727 1153.09 82.3493C1152.42 74.3766 1151.51 66.4013 1150.33 58.4203C1150.3 62.9035 1150.19 67.3567 1150.04 71.7924C1147.45 63.1027 1144.65 54.4221 1141.59 45.752C1144.65 58.166 1147.3 70.3282 1149.6 82.2822C1149.44 85.2839 1149.25 88.2739 1149.04 91.2556C1146.57 84.2203 1143.9 77.2139 1141 70.2415C1143.75 81.2658 1146.08 92.1975 1148.08 103.051C1146.76 99.3076 1145.41 95.5664 1144.01 91.8306C1140.81 74.8209 1136.89 57.8141 1132.04 40.8073C1134.13 52.3262 1135.88 63.6142 1137.34 74.7164C1135.4 69.9434 1133.39 65.177 1131.31 60.4192C1130.79 57.5561 1130.26 54.6926 1129.69 51.8268C1129.89 53.9049 1130.07 55.9639 1130.24 58.0267C1129.49 56.3261 1128.73 54.6265 1127.96 52.9278C1127.58 50.5169 1127.18 48.1066 1126.75 45.6958C1126.78 47.2813 1126.79 48.8577 1126.81 50.4373C1126.43 49.6171 1126.06 48.7956 1125.68 47.9759C1125.29 46.2709 1124.89 44.5682 1124.48 42.8643C1125.54 55.4474 1126.12 67.8598 1126.3 80.1364C1126.12 84.2231 1125.9 88.2949 1125.63 92.3475C1123.8 87.0947 1121.86 81.8251 1119.79 76.5339C1121.67 85.0946 1123.37 93.5565 1124.92 101.941C1123.91 114.142 1122.54 126.198 1120.88 138.138C1116.94 127.83 1112.63 117.497 1107.85 107.129C1108.18 84.1124 1107.35 60.9685 1104.86 37.6421ZM1393.39 38.4874C1394.13 53.1277 1394.26 67.5548 1393.9 81.8124C1392.43 88.9246 1390.83 95.9662 1389.12 102.946C1388.59 94.9191 1387.96 86.8884 1387.18 78.8539C1389.65 65.4844 1391.75 52.0357 1393.39 38.4874ZM1125.91 48.9989C1126.22 49.8683 1126.52 50.7325 1126.82 51.6001C1126.83 52.1491 1126.84 52.7023 1126.84 53.2507C1126.54 51.8336 1126.23 50.4153 1125.91 48.9989ZM1208.12 49.1839C1208.66 53.4015 1209.14 57.5781 1209.59 61.7343C1209.55 61.5546 1209.51 61.3754 1209.46 61.1956C1210.89 78.296 1211.42 95.0867 1211.27 111.638C1210.23 109.793 1209.18 107.947 1208.12 106.101C1206.39 98.1876 1204.43 90.2991 1202.22 82.4382C1201.34 74.6161 1200.23 66.793 1198.85 58.9718C1198.93 63.1086 1198.95 67.2209 1198.93 71.319C1197.51 66.7629 1196.01 62.2147 1194.41 57.6784C1196.1 66.5687 1197.52 75.3886 1198.73 84.1505C1198.41 95.7614 1197.72 107.224 1196.72 118.566C1196.55 118.033 1196.38 117.497 1196.21 116.964C1196.53 102.545 1196.11 88.0874 1194.8 73.5827C1194.13 83.861 1193.14 93.9962 1191.91 104.013C1190.07 98.7285 1188.11 93.426 1186.02 88.103C1187.79 96.1138 1189.4 104.044 1190.88 111.901C1189.53 121.709 1187.94 131.404 1186.13 141H1226.41C1224.51 137.005 1222.56 133.007 1220.53 129.006C1218.12 102.455 1214.24 75.8559 1208.12 49.1839ZM1352.76 54.4479C1357.14 68.1486 1360.91 81.7479 1364.18 95.2625C1361.05 105.891 1357.76 116.334 1354.33 126.632C1354 109.766 1352.68 92.8907 1350.16 76.0025C1351.15 68.8465 1352.03 61.6624 1352.76 54.4479ZM1128.47 56.3126C1129.2 58.4536 1129.93 60.589 1130.63 62.7156C1131.17 69.4043 1131.59 76.0139 1131.93 82.5525C1131.52 79.5359 1131.07 76.5202 1130.6 73.5065C1130.01 67.7747 1129.31 62.0439 1128.47 56.3126ZM1379.66 56.6155C1380.04 64.0217 1380.31 71.3529 1380.46 78.6018C1380.37 78.9639 1380.26 79.3212 1380.17 79.6829C1379.15 77.0746 1378.11 74.4707 1377.05 71.874C1377.97 66.8 1378.85 61.7149 1379.66 56.6155ZM1010.43 59.6121C1011.31 62.6481 1012.17 65.6703 1013.01 68.6852C1011.77 66.3124 1010.51 63.9386 1009.21 61.562C1012.25 69.9945 1015.09 78.346 1017.77 86.6301C1022.45 105.106 1026.32 123.196 1029.59 141H1043.64C1037.75 123.664 1030.97 106.265 1022.87 88.7741C1019.13 79.0991 1015 69.38 1010.43 59.6121ZM1329.97 60.3975C1331.25 66.8241 1332.43 73.204 1333.53 79.5396C1332.68 86.695 1331.73 93.7747 1330.7 100.791C1330.18 99.7794 1329.66 98.7691 1329.13 97.7584C1329.86 85.4587 1330.19 73.0221 1329.97 60.3975ZM1050.26 63.9255C1052.76 86.3569 1054.19 108.101 1054.8 129.315C1049.21 109.821 1042.34 90.1601 1033.65 70.2615C1038.35 88.2368 1042.27 105.823 1045.56 123.097C1040.56 115.584 1035.29 108.078 1029.69 100.584C1036.21 112.617 1042.27 124.515 1047.97 136.304C1048.25 137.874 1048.5 139.435 1048.77 141H1064.59C1061.97 115.802 1057.57 90.1951 1050.26 63.9255ZM1437.21 65.1971C1436.32 72.9781 1435.3 80.6971 1434.14 88.3533C1432.44 92.2654 1430.7 96.1447 1428.94 100.009C1428.59 98.8859 1428.25 97.7639 1427.88 96.6356C1431.38 86.2403 1434.51 75.767 1437.21 65.1971ZM1286.45 66.8532C1288.87 74.3908 1291.16 81.8738 1293.31 89.3002C1293.09 91.501 1292.85 93.6914 1292.61 95.8774C1290.82 86.2054 1288.77 76.5303 1286.45 66.8532ZM1253.17 72.0953C1259.72 81.666 1265.95 91.1721 1271.92 100.623C1271.46 105.568 1270.94 110.483 1270.36 115.373C1269.02 113.559 1267.68 111.746 1266.31 109.935C1262.38 97.2888 1258.03 84.674 1253.17 72.0953ZM1310.26 72.9624C1312.07 76.772 1313.84 80.5679 1315.58 84.35C1315.3 89.8678 1314.93 95.3492 1314.49 100.793C1313.63 99.0952 1312.77 97.3983 1311.9 95.7033C1311.5 88.1369 1310.96 80.5565 1310.26 72.9624ZM1298.27 78.3025C1299.75 81.5478 1301.19 84.7795 1302.61 88.0014C1302.5 89.7392 1302.37 91.4716 1302.24 93.2019C1301.02 90.1182 1299.78 87.0325 1298.49 83.9437C1298.43 82.0673 1298.35 80.1875 1298.27 78.3025ZM1349.66 79.5251C1349.59 85.7525 1349.41 91.936 1349.13 98.0758C1348.7 95.8511 1348.27 93.6264 1347.82 91.4025C1348.47 87.4518 1349.08 83.4918 1349.66 79.5251ZM1316.68 86.7589C1317.83 89.2939 1318.97 91.8248 1320.08 94.3465C1319.44 98.7594 1318.75 103.139 1318.05 107.501C1317.78 100.594 1317.33 93.6799 1316.68 86.7589ZM1374.08 87.1688C1374.74 89.7074 1375.39 92.2426 1376.01 94.7764C1375.39 96.9556 1374.76 99.1263 1374.12 101.29C1373.5 99.4886 1372.88 97.6884 1372.24 95.8919C1372.87 92.9874 1373.49 90.0803 1374.08 87.1688ZM1304.25 91.7508C1305.41 94.432 1306.56 97.1091 1307.68 99.7755C1307.6 102.125 1307.51 104.467 1307.41 106.799C1306.54 104.425 1305.65 102.049 1304.75 99.6721C1304.61 97.033 1304.44 94.3922 1304.25 91.7508ZM1276.59 108.094C1277.21 109.101 1277.84 110.108 1278.46 111.114C1278.9 116.878 1279.27 122.59 1279.58 128.257C1279.34 127.916 1279.1 127.576 1278.86 127.234C1278.88 126.775 1278.91 126.323 1278.93 125.863C1278.83 126.221 1278.74 126.576 1278.65 126.933C1277.97 125.967 1277.3 125 1276.61 124.035C1276.7 118.724 1276.7 113.411 1276.59 108.094ZM1423.8 108.297C1423.9 109.007 1424 109.717 1424.09 110.425C1422.93 112.881 1421.75 115.33 1420.56 117.771C1420.51 117.614 1420.47 117.457 1420.43 117.3C1421.58 114.305 1422.71 111.304 1423.8 108.297ZM1298.67 108.644C1299.2 110.63 1299.71 112.611 1300.22 114.59C1299.73 118.899 1299.2 123.189 1298.62 127.456C1298.42 127.169 1298.22 126.883 1298.02 126.596C1298.34 120.648 1298.56 114.664 1298.67 108.644ZM1239.04 108.742C1240.03 112.883 1241 117.013 1241.91 121.118C1241.98 123.85 1242.02 126.565 1242.06 129.275C1241.42 132.487 1240.78 135.69 1240.12 138.881C1239.55 137.007 1238.96 135.13 1238.36 133.253C1238.82 125.092 1239.04 116.922 1239.04 108.742ZM1312.53 111.528C1312.79 112.174 1313.04 112.814 1313.3 113.46C1313.1 115.326 1312.9 117.193 1312.69 119.052C1312.65 116.545 1312.6 114.037 1312.53 111.528ZM1380.17 112.627C1380.26 113.03 1380.35 113.434 1380.44 113.837C1380.39 116.062 1380.34 118.278 1380.28 120.492C1379.91 119.281 1379.56 118.068 1379.19 116.859C1379.52 115.448 1379.85 114.039 1380.17 112.627ZM1209.51 112.754C1210.07 114.196 1210.64 115.642 1211.2 117.08C1211.17 118.388 1211.14 119.692 1211.1 120.996C1210.6 118.245 1210.07 115.499 1209.51 112.754ZM1328.04 112.928C1328.23 113.399 1328.42 113.869 1328.62 114.339C1328.42 115.546 1328.21 116.74 1328.01 117.944C1327.92 117.422 1327.82 116.903 1327.73 116.382C1327.83 115.231 1327.94 114.08 1328.04 112.928ZM1164.38 114.938C1165.34 120.073 1166.23 125.175 1167.07 130.251C1166.63 132.362 1166.19 134.467 1165.73 136.567C1164.9 132.25 1164.04 127.934 1163.13 123.621C1163.57 120.729 1163.99 117.836 1164.38 114.938ZM1107.54 120.454C1109.11 125.659 1110.61 130.839 1112.05 135.992C1110.51 132.977 1108.92 129.961 1107.3 126.946C1107.39 124.783 1107.47 122.619 1107.54 120.454ZM1284.7 121.45C1285.42 122.65 1286.14 123.852 1286.85 125.05C1286.96 129.082 1287.03 133.091 1287.09 137.086C1287.02 137.519 1286.95 137.949 1286.88 138.381C1286.22 132.738 1285.5 127.095 1284.7 121.45ZM1305.07 134.365C1305.22 134.998 1305.37 135.635 1305.52 136.268C1305.48 136.648 1305.45 137.032 1305.42 137.412C1305.28 137.2 1305.13 136.989 1304.99 136.777C1305.02 135.974 1305.04 135.168 1305.07 134.365ZM1425.51 134.376C1425.41 134.856 1425.3 135.335 1425.19 135.814C1425.16 135.672 1425.12 135.528 1425.09 135.386C1425.23 135.049 1425.37 134.713 1425.51 134.376Z" fill="url(#paint7_linear)"/>
<defs>
<linearGradient id="paint0_linear" x1="1050.39" y1="360.298" x2="1048.57" y2="49.0532" gradientUnits="userSpaceOnUse">
<stop stop-color="#33A05F"/>
<stop offset="1" stop-color="#0D5071"/>
</linearGradient>
<linearGradient id="paint1_linear" x1="544.643" y1="361.298" x2="542.827" y2="50.0532" gradientUnits="userSpaceOnUse">
<stop stop-color="#4BBC38"/>
<stop offset="1" stop-color="#0D5071"/>
</linearGradient>
<linearGradient id="paint2_linear" x1="284.073" y1="361.298" x2="282.257" y2="50.0532" gradientUnits="userSpaceOnUse">
<stop stop-color="#4BBC38"/>
<stop offset="1" stop-color="#0D5071"/>
</linearGradient>
<linearGradient id="paint3_linear" x1="177.24" y1="360.747" x2="175.505" y2="49.9772" gradientUnits="userSpaceOnUse">
<stop stop-color="#61764C"/>
<stop offset="1" stop-color="#0D5071"/>
</linearGradient>
<linearGradient id="paint4_linear" x1="672.581" y1="384.441" x2="670.294" y2="75.67" gradientUnits="userSpaceOnUse">
<stop stop-color="#18182F"/>
<stop offset="1" stop-color="#0D5071"/>
</linearGradient>
<linearGradient id="paint5_linear" x1="382.984" y1="383.441" x2="380.696" y2="74.67" gradientUnits="userSpaceOnUse">
<stop stop-color="#18182F"/>
<stop offset="1" stop-color="#0D5071"/>
</linearGradient>
<linearGradient id="paint6_linear" x1="1453.37" y1="466.972" x2="1451.15" y2="86.8783" gradientUnits="userSpaceOnUse">
<stop stop-color="#18182F"/>
<stop offset="1" stop-color="#0D5071"/>
</linearGradient>
<linearGradient id="paint7_linear" x1="1464.41" y1="280.496" x2="1463.42" y2="38.1838" gradientUnits="userSpaceOnUse">
<stop stop-color="#629B3F"/>
<stop offset="1" stop-color="#0D5071"/>
</linearGradient>
</defs>
</svg>
