<svg width="1920" height="382" viewBox="0 0 1920 382" fill="none" xmlns="http://www.w3.org/2000/svg">
<path d="M0 382L64 367.808C128 354.146 256 324.965 384 282.919C512 240.076 640 184.368 768 141.526C896 99.4792 1024 70.2986 1152 63.6667C1280 57.0347 1408 70.2986 1536 106.111C1664 141.924 1792 197.632 1856 226.415L1920 254.667V0H1856C1792 0 1664 0 1536 0C1408 0 1280 0 1152 0C1024 0 896 0 768 0C640 0 512 0 384 0C256 0 128 0 64 0H0V382Z" fill="black"/>
<ellipse rx="2.5" ry="3" transform="matrix(-1 0 0 1 142.5 138)" fill="#C9A959"/>
<ellipse rx="3" ry="2.5" transform="matrix(-1 0 0 1 1842 130.5)" fill="#C9A959"/>
<circle r="3" transform="matrix(-1 0 0 1 426 88)" fill="#C9A959"/>
<ellipse rx="3" ry="2.5" transform="matrix(-1 0 0 1 569 143.5)" fill="#C9A959"/>
<ellipse rx="2.5" ry="3" transform="matrix(-1 0 0 1 266.5 227)" fill="#C9A959"/>
<ellipse rx="3" ry="2.5" transform="matrix(-1 0 0 1 272 93.5)" fill="#C9A959"/>
<circle r="3" transform="matrix(-1 0 0 1 73 233)" fill="#C9A959"/>
</svg>
