<svg width="1920" height="473" viewBox="0 0 1920 473" fill="none" xmlns="http://www.w3.org/2000/svg">
<path d="M0 421.5V228.5C91 436.5 231 461.5 384 461.5C490 461.5 674 391 792.5 318C911 245 1024 181.979 1152 104.32C1280 27.6259 1408 -7.7468 1536 1.41794C1664 9.93953 1792 61.3907 1856 87.1163L1920 112.842V473H1856C1792 473 1664 473 1536 473C1408 473 1280 473 1152 473C1024 473 896 473 768 473C640 473 512 473 384 473C256 473 128 473 64 473H0V421.5Z" fill="black"/>
<circle cx="1761.5" cy="414.5" r="1.5" fill="white"/>
<ellipse rx="1.6688" ry="1.65286" transform="matrix(0.9999 -0.0141261 0.0144 0.999896 1823.69 289.676)" fill="white"/>
<ellipse rx="1.6688" ry="1.65286" transform="matrix(0.9999 -0.0141261 0.0144 0.999896 1680.8 396.81)" fill="white"/>
<ellipse cx="1056.96" cy="348" rx="1.5" ry="1" fill="white"/>
<ellipse rx="1.6688" ry="1.65286" transform="matrix(0.9999 -0.0141261 0.0144 0.999896 1826.69 139.676)" fill="white"/>
<ellipse rx="1.6688" ry="1.65286" transform="matrix(0.9999 -0.0141261 0.0144 0.999896 1718.69 289.676)" fill="white"/>
<circle cx="1126.5" cy="223.5" r="1.5" fill="white"/>
<ellipse rx="1.6688" ry="1.65286" transform="matrix(0.9999 -0.0141261 0.0144 0.999896 1468.03 114.171)" fill="white"/>
<ellipse rx="1.6688" ry="1.65286" transform="matrix(0.9999 -0.0141261 0.0144 0.999896 1570.66 286.069)" fill="white"/>
<circle cx="1621.5" cy="345.5" r="1.5" fill="white"/>
<ellipse rx="1.6688" ry="1.65286" transform="matrix(0.9999 -0.0141261 0.0144 0.999896 1574 173.674)" fill="white"/>
<ellipse rx="1.6688" ry="1.65286" transform="matrix(0.9999 -0.0141261 0.0144 0.999896 1531.69 384.676)" fill="white"/>
<circle cx="1793.5" cy="198.5" r="1.5" fill="white"/>
<ellipse rx="1.6688" ry="1.65286" transform="matrix(0.9999 -0.0141261 0.0144 0.999896 1706.67 76.9807)" fill="white"/>
<ellipse rx="1.6688" ry="1.65286" transform="matrix(0.9999 -0.0141261 0.0144 0.999896 1683.69 216.676)" fill="white"/>
<circle cx="1373.5" cy="237.5" r="1.5" fill="white"/>
<circle cx="891.292" cy="365.524" r="1.39323" transform="rotate(-0.817203 891.292 365.524)" fill="white"/>
<circle cx="1306.5" cy="110.5" r="1.5" fill="white"/>
<ellipse rx="1.6688" ry="1.65286" transform="matrix(0.9999 -0.0141261 0.0144 0.999896 1464.69 219.954)" fill="white"/>
<circle cx="1054.3" cy="414.287" r="1.39323" transform="rotate(-0.817203 1054.3 414.287)" fill="white"/>
<circle cx="961.96" cy="419.5" r="1.5" fill="white"/>
<circle cx="991.604" cy="285.412" r="1.39323" transform="rotate(-0.817203 991.604 285.412)" fill="white"/>
<circle cx="770.08" cy="408.713" r="1.39323" transform="rotate(-0.817203 770.08 408.713)" fill="white"/>
<circle cx="77.3651" cy="334.639" r="1.39323" transform="rotate(-0.817203 77.3651 334.639)" fill="white"/>
<circle cx="683.659" cy="400.413" r="1.39323" transform="rotate(-0.817203 683.659 400.413)" fill="white"/>
<circle cx="18.2987" cy="409.973" r="1.39323" transform="rotate(-0.817203 18.2987 409.973)" fill="white"/>
<circle cx="63.413" cy="380.413" r="1.39323" transform="rotate(-0.817203 63.413 380.413)" fill="white"/>
<circle cx="631.413" cy="412.256" r="1.39323" transform="rotate(-0.817203 631.413 412.256)" fill="white"/>
<ellipse cx="1451" cy="321.5" rx="2" ry="2.5" fill="white"/>
<circle cx="110.413" cy="407.413" r="1.39323" transform="rotate(-0.817203 110.413 407.413)" fill="white"/>
<circle cx="28.413" cy="323.413" r="1.39323" transform="rotate(-0.817203 28.413 323.413)" fill="white"/>
<ellipse rx="1.6688" ry="1.65286" transform="matrix(0.9999 -0.0141261 0.0144 0.999896 1221.04 258.797)" fill="white"/>
<circle cx="1306.5" cy="364.5" r="1.5" fill="white"/>
<circle cx="836.259" cy="437.276" r="1.39323" transform="rotate(-0.817203 836.259 437.276)" fill="white"/>
<ellipse rx="1.6688" ry="1.65286" transform="matrix(0.9999 -0.0141261 0.0144 0.999896 1189.69 361.676)" fill="white"/>
<circle cx="1854.5" cy="73.5" r="1.5" fill="white"/>
</svg>
