<svg width="1920" height="960" viewBox="0 0 1920 960" fill="none" xmlns="http://www.w3.org/2000/svg">
<ellipse cx="48.3272" cy="133.817" rx="3.32725" ry="2.38236" fill="#EFA1BF"/>
<ellipse cx="48.3272" cy="182.417" rx="3.32725" ry="2.38236" fill="#EFA1BF"/>
<ellipse cx="48.3272" cy="231.018" rx="3.32725" ry="2.38236" fill="#EFA1BF"/>
<ellipse cx="48.3272" cy="279.618" rx="3.32725" ry="2.38236" fill="#EFA1BF"/>
<ellipse cx="96.0187" cy="109.041" rx="3.32725" ry="2.38236" fill="#EFA1BF"/>
<ellipse cx="96.0187" cy="154.781" rx="3.32725" ry="2.38236" fill="#EFA1BF"/>
<ellipse cx="96.0187" cy="200.524" rx="3.32725" ry="2.38236" fill="#EFA1BF"/>
<ellipse cx="96.0187" cy="246.265" rx="3.32725" ry="2.38236" fill="#EFA1BF"/>
<ellipse cx="241.308" cy="66.1597" rx="3.32725" ry="2.38236" fill="#EFA1BF"/>
<ellipse cx="241.308" cy="114.759" rx="3.32725" ry="2.38236" fill="#EFA1BF"/>
<ellipse cx="241.308" cy="163.359" rx="3.32725" ry="2.38236" fill="#EFA1BF"/>
<ellipse cx="241.308" cy="211.959" rx="3.32725" ry="2.38236" fill="#EFA1BF"/>
<ellipse cx="288.997" cy="41.3824" rx="3.32725" ry="2.38236" fill="#EFA1BF"/>
<ellipse cx="288.997" cy="87.1236" rx="3.32725" ry="2.38236" fill="#EFA1BF"/>
<ellipse cx="288.997" cy="132.865" rx="3.32725" ry="2.38236" fill="#EFA1BF"/>
<ellipse cx="288.997" cy="178.605" rx="3.32725" ry="2.38236" fill="#EFA1BF"/>
<ellipse cx="150.364" cy="129.053" rx="3.32725" ry="2.38236" fill="#EFA1BF"/>
<ellipse cx="150.364" cy="177.653" rx="3.32725" ry="2.38236" fill="#EFA1BF"/>
<ellipse cx="150.364" cy="226.253" rx="3.32725" ry="2.38236" fill="#EFA1BF"/>
<ellipse cx="150.364" cy="274.853" rx="3.32725" ry="2.38236" fill="#EFA1BF"/>
<ellipse cx="198.054" cy="104.276" rx="3.32725" ry="2.38236" fill="#EFA1BF"/>
<ellipse cx="198.054" cy="150.019" rx="3.32725" ry="2.38236" fill="#EFA1BF"/>
<ellipse cx="198.054" cy="195.758" rx="3.32725" ry="2.38236" fill="#EFA1BF"/>
<ellipse cx="198.054" cy="241.502" rx="3.32725" ry="2.38236" fill="#EFA1BF"/>
<rect x="489.629" y="592" width="38.5043" height="2.21078" transform="rotate(48.0328 489.629 592)" fill="#B91414"/>
<rect x="462.645" y="616.271" width="37.3989" height="2.21078" transform="rotate(48.0328 462.645 616.271)" fill="#B91414"/>
<rect x="461" y="617.749" width="38.5043" height="2.21078" transform="rotate(-41.9672 461 617.749)" fill="#B91414"/>
<rect x="485.27" y="644.733" width="38.5043" height="2.21078" transform="rotate(-41.9672 485.27 644.733)" fill="#B91414"/>
<rect x="408.467" y="681.001" width="38.5043" height="2.21078" transform="rotate(52.301 408.467 681.001)" fill="#14B97E"/>
<rect x="379.75" y="703.194" width="37.3989" height="2.21078" transform="rotate(52.301 379.75 703.194)" fill="#14B97E"/>
<rect x="378" y="704.546" width="38.5043" height="2.21078" transform="rotate(-37.699 378 704.546)" fill="#14B97E"/>
<rect x="400.195" y="733.263" width="38.5043" height="2.21078" transform="rotate(-37.699 400.195 733.263)" fill="#14B97E"/>
<rect x="542.832" y="705" width="38.5043" height="2.21078" transform="rotate(46.2885 542.832 705)" fill="#2114B9"/>
<rect x="516.598" y="730.08" width="37.3989" height="2.21078" transform="rotate(46.2885 516.598 730.08)" fill="#2114B9"/>
<rect x="515" y="731.607" width="38.5043" height="2.21078" transform="rotate(-43.7115 515 731.607)" fill="#2114B9"/>
<rect x="540.08" y="757.842" width="38.5043" height="2.21078" transform="rotate(-43.7115 540.08 757.842)" fill="#2114B9"/>
<rect x="1577.37" y="348" width="23.092" height="1.23908" transform="rotate(17.1477 1577.37 348)" fill="#B91414"/>
<rect x="1578.21" y="349" width="21.413" height="1.23908" transform="rotate(76.3735 1578.21 349)" fill="#B91414"/>
<rect x="1582.14" y="369.607" width="22.3724" height="1.23909" transform="rotate(-41.9672 1582.14 369.607)" fill="#B91414"/>
<rect x="1549.08" y="248.001" width="21.5807" height="1.23908" transform="rotate(52.301 1549.08 248.001)" fill="#14B97E"/>
<rect x="1532.98" y="260.439" width="20.9612" height="1.23908" transform="rotate(52.301 1532.98 260.439)" fill="#14B97E"/>
<rect x="1532" y="261.197" width="21.5807" height="1.23909" transform="rotate(-37.699 1532 261.197)" fill="#14B97E"/>
<rect x="1544.44" y="277.292" width="21.5807" height="1.23909" transform="rotate(-37.699 1544.44 277.292)" fill="#14B97E"/>
<rect x="1647.6" y="278.001" width="21.5807" height="1.23908" transform="rotate(46.2885 1647.6 278.001)" fill="#2114B9"/>
<rect x="1632.9" y="292.057" width="20.9612" height="1.23908" transform="rotate(46.2885 1632.9 292.057)" fill="#2114B9"/>
<rect x="1632" y="292.913" width="21.5807" height="1.23909" transform="rotate(-43.7115 1632 292.913)" fill="#2114B9"/>
<rect x="1646.06" y="307.616" width="21.5807" height="1.23909" transform="rotate(-43.7115 1646.06 307.616)" fill="#2114B9"/>
</svg>
