<svg width="249" height="243" viewBox="0 0 249 243" fill="none" xmlns="http://www.w3.org/2000/svg">
<ellipse cx="4.14951" cy="94.8169" rx="3.32725" ry="2.38236" fill="#EFA1BF"/>
<ellipse cx="4.14951" cy="143.417" rx="3.32725" ry="2.38236" fill="#EFA1BF"/>
<ellipse cx="4.14951" cy="192.018" rx="3.32725" ry="2.38236" fill="#EFA1BF"/>
<ellipse cx="4.14951" cy="240.618" rx="3.32725" ry="2.38236" fill="#EFA1BF"/>
<ellipse cx="51.8409" cy="70.0406" rx="3.32725" ry="2.38236" fill="#EFA1BF"/>
<ellipse cx="51.8409" cy="115.781" rx="3.32725" ry="2.38236" fill="#EFA1BF"/>
<ellipse cx="51.8409" cy="161.524" rx="3.32725" ry="2.38236" fill="#EFA1BF"/>
<ellipse cx="51.8409" cy="207.265" rx="3.32725" ry="2.38236" fill="#EFA1BF"/>
<ellipse cx="197.13" cy="27.1597" rx="3.32725" ry="2.38236" fill="#EFA1BF"/>
<ellipse cx="197.13" cy="75.7593" rx="3.32725" ry="2.38236" fill="#EFA1BF"/>
<ellipse cx="197.13" cy="124.359" rx="3.32725" ry="2.38236" fill="#EFA1BF"/>
<ellipse cx="197.13" cy="172.959" rx="3.32725" ry="2.38236" fill="#EFA1BF"/>
<ellipse cx="244.819" cy="2.38236" rx="3.32725" ry="2.38236" fill="#EFA1BF"/>
<ellipse cx="244.819" cy="48.1236" rx="3.32725" ry="2.38236" fill="#EFA1BF"/>
<ellipse cx="244.819" cy="93.8648" rx="3.32725" ry="2.38236" fill="#EFA1BF"/>
<ellipse cx="244.819" cy="139.605" rx="3.32725" ry="2.38236" fill="#EFA1BF"/>
<ellipse cx="106.187" cy="90.0533" rx="3.32725" ry="2.38236" fill="#EFA1BF"/>
<ellipse cx="106.187" cy="138.653" rx="3.32725" ry="2.38236" fill="#EFA1BF"/>
<ellipse cx="106.187" cy="187.253" rx="3.32725" ry="2.38236" fill="#EFA1BF"/>
<ellipse cx="106.187" cy="235.853" rx="3.32725" ry="2.38236" fill="#EFA1BF"/>
<ellipse cx="153.876" cy="65.2759" rx="3.32725" ry="2.38236" fill="#EFA1BF"/>
<ellipse cx="153.876" cy="111.019" rx="3.32725" ry="2.38236" fill="#EFA1BF"/>
<ellipse cx="153.876" cy="156.758" rx="3.32725" ry="2.38236" fill="#EFA1BF"/>
<ellipse cx="153.876" cy="202.502" rx="3.32725" ry="2.38236" fill="#EFA1BF"/>
</svg>
