<svg width="1439" height="570" viewBox="0 0 1439 570" fill="none" xmlns="http://www.w3.org/2000/svg">
<path d="M1079.31 138.303C1082.44 136.708 1082.82 132.485 1083.27 125.978C1083.73 132.485 1084.09 136.707 1087.24 138.303C1090.36 139.897 1095.51 139.732 1103.26 139.91C1095.51 140.113 1090.36 139.931 1087.24 141.525C1084.09 143.118 1083.73 147.338 1083.27 153.859C1082.82 147.338 1082.44 143.118 1079.31 141.525C1076.17 139.931 1071.04 140.114 1063.26 139.91C1071.04 139.732 1076.17 139.897 1079.31 138.303Z" fill="url(#paint0_radial)"/>
<path d="M1410.45 103.195C1413.66 101.603 1414.04 97.3751 1414.52 90.8696C1414.99 97.3751 1415.36 101.603 1418.58 103.195C1421.78 104.79 1427.06 104.626 1435 104.801C1427.06 105.004 1421.78 104.823 1418.58 106.416C1415.36 108.005 1414.99 112.229 1414.52 118.75C1414.04 112.229 1413.66 108.005 1410.45 106.416C1407.24 104.823 1401.97 105.004 1394 104.801C1401.97 104.626 1407.24 104.79 1410.45 103.195Z" fill="url(#paint1_radial)"/>
<path d="M75.8328 192.48C77.9535 191.356 78.2016 188.38 78.5107 183.804C78.8183 188.379 79.0625 191.355 81.1893 192.48C83.2965 193.601 86.7676 193.482 92.0005 193.608C86.7683 193.753 83.2965 193.625 81.1893 194.746C79.0633 195.865 78.8183 198.833 78.5107 203.424C78.2016 198.833 77.9535 195.864 75.8328 194.746C73.7173 193.625 70.2515 193.753 65.0005 193.608C70.2515 193.482 73.7173 193.601 75.8328 192.48Z" fill="url(#paint2_radial)"/>
<path d="M1351.23 130.64C1353.43 129.638 1353.69 126.974 1354.01 122.88C1354.33 126.974 1354.59 129.638 1356.79 130.64C1358.97 131.644 1362.57 131.541 1368 131.65C1362.58 131.781 1358.97 131.666 1356.79 132.67C1354.59 133.67 1354.33 136.326 1354.01 140.435C1353.69 136.326 1353.43 133.67 1351.23 132.67C1349.04 131.665 1345.44 131.78 1340 131.65C1345.44 131.541 1349.04 131.644 1351.23 130.64Z" fill="url(#paint3_radial)"/>
<path d="M1306.83 559.052C1308.95 557.933 1309.2 554.955 1309.51 550.38C1309.82 554.955 1310.06 557.933 1312.19 559.052C1314.29 560.176 1317.77 560.063 1323 560.18C1317.77 560.327 1314.29 560.201 1312.19 561.321C1310.06 562.44 1309.82 565.407 1309.51 570C1309.2 565.407 1308.95 562.44 1306.83 561.321C1304.72 560.201 1301.25 560.326 1296 560.18C1301.25 560.063 1304.72 560.176 1306.83 559.052Z" fill="url(#paint4_radial)"/>
<path d="M1268.83 423.781C1270.95 422.663 1271.2 419.683 1271.51 415.109C1271.82 419.683 1272.06 422.663 1274.18 423.781C1276.29 424.904 1279.77 424.79 1285 424.909C1279.77 425.056 1276.29 424.928 1274.18 426.049C1272.06 427.166 1271.82 430.135 1271.51 434.728C1271.2 430.135 1270.95 427.166 1268.83 426.049C1266.72 424.928 1263.25 425.055 1258 424.909C1263.25 424.79 1266.72 424.904 1268.83 423.781Z" fill="url(#paint5_radial)"/>
<path d="M257.234 360.911C259.426 359.91 259.686 357.244 260.01 353.152C260.329 357.244 260.581 359.91 262.783 360.911C264.973 361.915 268.577 361.813 274 361.919C268.577 362.054 264.973 361.937 262.783 362.939C260.582 363.942 260.329 366.595 260.01 370.706C259.686 366.595 259.426 363.942 257.234 362.939C255.036 361.937 251.443 362.054 246 361.919C251.443 361.814 255.037 361.915 257.234 360.911Z" fill="url(#paint6_radial)"/>
<path d="M1061.03 509.031C1062.99 507.971 1063.22 505.15 1063.51 500.815C1063.79 505.15 1064.02 507.971 1065.98 509.031C1067.94 510.095 1071.16 509.985 1076 510.1C1071.16 510.241 1067.94 510.117 1065.98 511.181C1064.02 512.238 1063.79 515.051 1063.51 519.402C1063.22 515.051 1062.99 512.238 1061.03 511.181C1059.07 510.117 1055.86 510.241 1051 510.1C1055.86 509.985 1059.07 510.095 1061.03 509.031Z" fill="url(#paint7_radial)"/>
<path d="M9.81915 320.425C11.1555 319.715 11.3127 317.836 11.5072 314.946C11.7002 317.836 11.8544 319.715 13.1907 320.425C14.5225 321.133 16.7036 321.062 20 321.135C16.7036 321.227 14.5225 321.146 13.1907 321.852C11.8544 322.561 11.7002 324.439 11.5072 327.337C11.3127 324.44 11.1555 322.562 9.81915 321.852C8.48738 321.146 6.30169 321.227 3 321.135C6.30169 321.062 8.48738 321.133 9.81915 320.425Z" fill="url(#paint8_radial)"/>
<path d="M145.82 556.892C147.156 556.182 147.312 554.301 147.508 551.413C147.699 554.301 147.855 556.182 149.191 556.892C150.523 557.603 152.704 557.53 156 557.603C152.704 557.695 150.523 557.612 149.191 558.32C147.855 559.027 147.699 560.907 147.508 563.804C147.312 560.907 147.156 559.028 145.82 558.32C144.488 557.612 142.301 557.695 139 557.603C142.301 557.53 144.488 557.603 145.82 556.892Z" fill="url(#paint9_radial)"/>
<path d="M352.222 219.804C353.637 219.156 353.801 217.432 354.005 214.783C354.214 217.432 354.382 219.156 355.793 219.804C357.197 220.452 359.519 220.389 363 220.457C359.519 220.541 357.197 220.466 355.793 221.116C354.382 221.766 354.214 223.485 354.005 226.141C353.801 223.485 353.637 221.766 352.222 221.116C350.809 220.466 348.503 220.541 345 220.457C348.503 220.389 350.81 220.452 352.222 219.804Z" fill="url(#paint10_radial)"/>
<path d="M1126.42 326.74C1127.68 326.151 1127.83 324.581 1128.01 322.174C1128.19 324.581 1128.34 326.151 1129.59 326.74C1130.84 327.334 1132.91 327.273 1136 327.334C1132.91 327.407 1130.84 327.346 1129.59 327.932C1128.34 328.526 1128.19 330.086 1128.01 332.5C1127.83 330.086 1127.68 328.526 1126.42 327.932C1125.17 327.346 1123.11 327.407 1120 327.334C1123.11 327.273 1125.17 327.333 1126.42 326.74Z" fill="url(#paint11_radial)"/>
<path d="M1016.75 272.089C1019.97 270.551 1020.35 266.48 1020.82 260.217C1021.28 266.48 1021.66 270.551 1024.88 272.089C1028.08 273.622 1033.36 273.464 1041.31 273.632C1033.36 273.832 1028.08 273.654 1024.88 275.191C1021.66 276.72 1021.28 280.785 1020.82 287.065C1020.35 280.785 1019.97 276.719 1016.75 275.191C1013.54 273.654 1008.27 273.833 1000.31 273.632C1008.27 273.464 1013.54 273.622 1016.75 272.089Z" fill="url(#paint12_radial)"/>
<path d="M1403.64 320.047C1406.7 318.451 1407.06 314.221 1407.51 307.717C1407.96 314.221 1408.31 318.451 1411.38 320.047C1414.43 321.64 1419.44 321.474 1427 321.649C1419.44 321.855 1414.43 321.672 1411.38 323.267C1408.31 324.856 1407.96 329.077 1407.51 335.598C1407.06 329.077 1406.7 324.856 1403.64 323.267C1400.59 321.672 1395.58 321.856 1388 321.649C1395.58 321.474 1400.59 321.639 1403.64 320.047Z" fill="url(#paint13_radial)"/>
<path d="M1414.44 13.3607C1417.66 11.7646 1418.04 7.5364 1418.51 1.03259C1418.98 7.53576 1419.36 11.7639 1422.58 13.3607C1425.78 14.9535 1431.06 14.7885 1439 14.9625C1431.05 15.1713 1425.78 14.9869 1422.58 16.5824C1419.36 18.1695 1418.98 22.3919 1418.51 28.913C1418.04 22.3919 1417.66 18.1688 1414.44 16.5824C1411.23 14.9869 1405.97 15.1713 1398 14.9625C1405.97 14.7878 1411.23 14.9535 1414.44 13.3607Z" fill="url(#paint14_radial)"/>
<path d="M1220.23 117.095C1222.43 115.976 1222.69 113.002 1223.01 108.424C1223.33 113.002 1223.58 115.975 1225.78 117.095C1227.97 118.222 1231.58 118.104 1237 118.228C1231.58 118.372 1227.97 118.245 1225.78 119.364C1223.58 120.483 1223.33 123.457 1223.01 128.044C1222.69 123.457 1222.43 120.483 1220.23 119.364C1218.04 118.245 1214.44 118.373 1209 118.228C1214.44 118.103 1218.04 118.222 1220.23 117.095Z" fill="url(#paint15_radial)"/>
<path d="M1417.23 528.07C1419.43 526.953 1419.69 523.98 1420.01 519.402C1420.33 523.98 1420.58 526.952 1422.78 528.07C1424.97 529.198 1428.57 529.08 1434 529.206C1428.58 529.347 1424.97 529.222 1422.78 530.342C1420.58 531.459 1420.33 534.433 1420.01 539.022C1419.69 534.433 1419.43 531.459 1417.23 530.342C1415.04 529.223 1411.44 529.347 1406 529.206C1411.44 529.08 1415.04 529.198 1417.23 528.07Z" fill="url(#paint16_radial)"/>
<path d="M1317.23 546.105C1318.64 545.457 1318.8 543.735 1319 541.087C1319.22 543.735 1319.38 545.457 1320.79 546.105C1322.2 546.757 1324.51 546.693 1328 546.759C1324.51 546.843 1322.2 546.768 1320.79 547.42C1319.38 548.066 1319.22 549.788 1319 552.446C1318.8 549.788 1318.64 548.066 1317.23 547.42C1315.82 546.768 1313.51 546.843 1310 546.759C1313.51 546.693 1315.82 546.758 1317.23 546.105Z" fill="url(#paint17_radial)"/>
<path d="M133.031 277.276C134.985 276.27 135.223 273.606 135.508 269.511C135.793 273.606 136.026 276.271 137.985 277.276C139.937 278.279 143.156 278.173 148 278.282C143.156 278.41 139.937 278.297 137.985 279.302C136.026 280.303 135.793 282.963 135.508 287.065C135.223 282.963 134.985 280.303 133.031 279.302C131.07 278.297 127.862 278.41 123 278.282C127.862 278.173 131.07 278.279 133.031 277.276Z" fill="url(#paint18_radial)"/>
<path d="M352.221 11.6738C353.625 10.9653 353.801 9.08098 354.004 6.19568C354.211 9.08031 354.378 10.9653 355.792 11.6738C357.198 12.3844 359.511 12.3092 363 12.389C359.511 12.4781 357.198 12.3983 355.792 13.1095C354.378 13.8147 354.211 15.6917 354.004 18.587C353.801 15.6917 353.625 13.814 352.221 13.1095C350.808 12.3983 348.505 12.4781 345 12.389C348.505 12.3092 350.808 12.3844 352.221 11.6738Z" fill="url(#paint19_radial)"/>
<path d="M6.8199 537.848C8.15062 537.198 8.31391 535.471 8.50608 532.826C8.69976 535.471 8.85547 537.198 10.193 537.848C11.5177 538.498 13.7051 538.43 17 538.502C13.7051 538.583 11.5177 538.514 10.193 539.163C8.85547 539.809 8.69976 541.532 8.50608 544.185C8.31391 541.532 8.15062 539.808 6.8199 539.163C5.48767 538.514 3.30931 538.583 0 538.502C3.30931 538.43 5.48767 538.498 6.8199 537.848Z" fill="url(#paint20_radial)"/>
<path d="M1125.86 490.522C1129.94 488.51 1130.41 483.19 1131.01 475C1131.6 483.19 1132.07 488.51 1136.17 490.522C1140.24 492.528 1146.91 492.319 1157 492.542C1146.91 492.799 1140.24 492.578 1136.17 494.575C1132.07 496.579 1131.6 501.894 1131.01 510.109C1130.41 501.894 1129.94 496.579 1125.86 494.575C1121.78 492.578 1115.11 492.799 1105 492.542C1115.1 492.319 1121.77 492.528 1125.86 490.522Z" fill="url(#paint21_radial)"/>
<path d="M421.175 466.315C425.177 464.362 425.644 459.2 426.234 451.25C426.812 459.2 427.272 464.362 431.29 466.315C435.282 468.263 441.824 468.061 451.722 468.277C441.824 468.527 435.282 468.313 431.29 470.25C427.272 472.198 426.812 477.355 426.234 485.326C425.644 477.355 425.177 472.198 421.175 470.25C417.173 468.313 410.629 468.527 400.722 468.277C410.629 468.061 417.172 468.263 421.175 466.315Z" fill="url(#paint22_radial)"/>
<path d="M41.0281 447.053C44.163 445.458 44.5378 441.235 44.9955 434.728C45.4532 441.235 45.8119 445.457 48.9629 447.053C52.0825 448.647 57.2303 448.482 64.9824 448.66C57.2296 448.863 52.0817 448.681 48.9629 450.275C45.8111 451.868 45.4532 456.088 44.9955 462.609C44.5378 456.088 44.163 451.868 41.0281 450.275C37.8947 448.681 32.7599 448.864 24.9824 448.66C32.7606 448.482 37.8947 448.647 41.0281 447.053Z" fill="url(#paint23_radial)"/>
<path d="M1205.22 244.662C1208.36 243.07 1208.73 238.842 1209.19 232.337C1209.65 238.842 1210.01 243.07 1213.15 244.662C1216.28 246.257 1221.42 246.093 1229.17 246.269C1221.42 246.472 1216.28 246.291 1213.15 247.883C1210.01 249.472 1209.65 253.696 1209.19 260.217C1208.73 253.697 1208.36 249.472 1205.22 247.883C1202.09 246.291 1196.95 246.472 1189.17 246.269C1196.95 246.093 1202.09 246.257 1205.22 244.662Z" fill="url(#paint24_radial)"/>
<path d="M75.8328 192.48C77.9535 191.356 78.2016 188.38 78.5107 183.804C78.8183 188.379 79.0625 191.355 81.1893 192.48C83.2965 193.601 86.7676 193.482 92.0005 193.608C86.7683 193.753 83.2965 193.625 81.1893 194.746C79.0633 195.865 78.8183 198.833 78.5107 203.424C78.2016 198.833 77.9535 195.864 75.8328 194.746C73.7173 193.625 70.2515 193.753 65.0005 193.608C70.2515 193.482 73.7173 193.601 75.8328 192.48Z" fill="url(#paint25_radial)"/>
<path d="M1351.23 130.64C1353.43 129.638 1353.69 126.974 1354.01 122.88C1354.33 126.974 1354.59 129.638 1356.79 130.64C1358.97 131.644 1362.57 131.541 1368 131.65C1362.58 131.781 1358.97 131.666 1356.79 132.67C1354.59 133.67 1354.33 136.326 1354.01 140.435C1353.69 136.326 1353.43 133.67 1351.23 132.67C1349.04 131.665 1345.44 131.78 1340 131.65C1345.44 131.541 1349.04 131.644 1351.23 130.64Z" fill="url(#paint26_radial)"/>
<path d="M1306.83 559.052C1308.95 557.933 1309.2 554.955 1309.51 550.38C1309.82 554.955 1310.06 557.933 1312.19 559.052C1314.29 560.176 1317.77 560.063 1323 560.18C1317.77 560.327 1314.29 560.201 1312.19 561.321C1310.06 562.44 1309.82 565.407 1309.51 570C1309.2 565.407 1308.95 562.44 1306.83 561.321C1304.72 560.201 1301.25 560.326 1296 560.18C1301.25 560.063 1304.72 560.176 1306.83 559.052Z" fill="url(#paint27_radial)"/>
<path d="M1234.83 499.618C1236.95 498.441 1237.2 495.304 1237.51 490.489C1237.82 495.304 1238.06 498.441 1240.18 499.618C1242.29 500.8 1245.77 500.68 1251 500.805C1245.77 500.96 1242.29 500.826 1240.18 502.005C1238.06 503.181 1237.82 506.306 1237.51 511.141C1237.2 506.306 1236.95 503.181 1234.83 502.005C1232.72 500.826 1229.25 500.959 1224 500.805C1229.25 500.68 1232.72 500.8 1234.83 499.618Z" fill="url(#paint28_radial)"/>
<path d="M244.833 221.965C246.947 220.905 247.197 218.083 247.51 213.75C247.817 218.083 248.06 220.905 250.184 221.965C252.295 223.028 255.771 222.921 261 223.032C255.771 223.176 252.295 223.052 250.184 224.113C248.061 225.174 247.817 227.984 247.51 232.337C247.197 227.984 246.947 225.174 244.833 224.113C242.713 223.052 239.249 223.176 234 223.032C239.249 222.921 242.714 223.028 244.833 221.965Z" fill="url(#paint29_radial)"/>
<path d="M1031.83 407.259C1033.95 406.14 1034.2 403.163 1034.51 398.587C1034.82 403.163 1035.06 406.14 1037.18 407.259C1039.3 408.382 1042.77 408.266 1048 408.387C1042.77 408.537 1039.3 408.406 1037.18 409.529C1035.06 410.644 1034.82 413.613 1034.51 418.206C1034.2 413.613 1033.95 410.644 1031.83 409.529C1029.71 408.406 1026.25 408.536 1021 408.387C1026.25 408.266 1029.71 408.382 1031.83 407.259Z" fill="url(#paint30_radial)"/>
<path d="M9.81915 320.425C11.1555 319.715 11.3127 317.836 11.5072 314.946C11.7002 317.836 11.8544 319.715 13.1907 320.425C14.5225 321.133 16.7036 321.062 20 321.135C16.7036 321.227 14.5225 321.146 13.1907 321.852C11.8544 322.561 11.7002 324.439 11.5072 327.337C11.3127 324.44 11.1555 322.562 9.81915 321.852C8.48738 321.146 6.30169 321.227 3 321.135C6.30169 321.062 8.48738 321.133 9.81915 320.425Z" fill="url(#paint31_radial)"/>
<path d="M89.8202 411.294C91.1558 410.584 91.3116 408.704 91.5076 405.815C91.6991 408.704 91.8548 410.584 93.1912 411.294C94.523 412.005 96.7042 411.932 100 412.005C96.7042 412.098 94.523 412.015 93.1912 412.722C91.8548 413.429 91.6991 415.309 91.5076 418.206C91.3116 415.309 91.1558 413.43 89.8202 412.722C88.4876 412.015 86.3011 412.098 83 412.005C86.3011 411.932 88.4876 412.005 89.8202 411.294Z" fill="url(#paint32_radial)"/>
<path d="M1142.42 5.02144C1143.68 4.37388 1143.82 2.64931 1144 0C1144.19 2.64931 1144.34 4.37327 1145.59 5.02144C1146.84 5.6696 1148.91 5.60685 1152 5.67447C1148.91 5.75854 1146.84 5.68361 1145.59 6.3336C1144.34 6.98298 1144.19 8.70208 1144 11.3587C1143.82 8.70208 1143.68 6.98298 1142.42 6.3336C1141.16 5.68361 1139.11 5.75854 1136 5.67447C1139.11 5.60685 1141.17 5.6696 1142.42 5.02144Z" fill="url(#paint33_radial)"/>
<path d="M1400.02 215.218C1401.2 214.629 1401.34 213.06 1401.51 210.652C1401.68 213.06 1401.82 214.629 1402.99 215.218C1404.17 215.812 1406.1 215.751 1409 215.812C1406.1 215.885 1404.17 215.824 1402.99 216.41C1401.82 217.005 1401.67 218.564 1401.51 220.978C1401.34 218.564 1401.2 217.005 1400.02 216.41C1398.84 215.824 1396.91 215.885 1394 215.812C1396.91 215.751 1398.84 215.811 1400.02 215.218Z" fill="url(#paint34_radial)"/>
<path d="M1180.44 388.774C1183.66 387.236 1184.05 383.165 1184.51 376.902C1184.98 383.165 1185.35 387.236 1188.58 388.774C1191.78 390.307 1197.05 390.148 1205 390.316C1197.05 390.517 1191.78 390.339 1188.58 391.876C1185.35 393.405 1184.98 397.47 1184.51 403.75C1184.05 397.47 1183.66 393.404 1180.44 391.876C1177.23 390.339 1171.97 390.517 1164 390.316C1171.97 390.148 1177.23 390.307 1180.44 388.774Z" fill="url(#paint35_radial)"/>
<path d="M1335.24 361.928C1338.22 360.39 1338.57 356.317 1339.01 350.054C1339.45 356.317 1339.79 360.39 1342.78 361.928C1345.75 363.461 1350.64 363.301 1358 363.47C1350.64 363.669 1345.75 363.492 1342.78 365.028C1339.79 366.558 1339.45 370.623 1339.01 376.902C1338.57 370.623 1338.22 366.558 1335.24 365.028C1332.26 363.492 1327.38 363.669 1320 363.47C1327.38 363.301 1332.26 363.46 1335.24 361.928Z" fill="url(#paint36_radial)"/>
<path d="M1325.44 14.3933C1328.66 12.7972 1329.04 8.56899 1329.51 2.06519C1329.98 8.56835 1330.36 12.7965 1333.58 14.3933C1336.78 15.9861 1342.05 15.8211 1350 15.9951C1342.05 16.2039 1336.78 16.0195 1333.58 17.615C1330.36 19.2021 1329.98 23.4245 1329.51 29.9456C1329.04 23.4245 1328.66 19.2014 1325.44 17.615C1322.23 16.0195 1316.97 16.2039 1309 15.9951C1316.97 15.8204 1322.23 15.9861 1325.44 14.3933Z" fill="url(#paint37_radial)"/>
<path d="M1220.23 117.095C1222.43 115.976 1222.69 113.002 1223.01 108.424C1223.33 113.002 1223.58 115.975 1225.78 117.095C1227.97 118.222 1231.58 118.104 1237 118.228C1231.58 118.372 1227.97 118.245 1225.78 119.364C1223.58 120.483 1223.33 123.457 1223.01 128.044C1222.69 123.457 1222.43 120.483 1220.23 119.364C1218.04 118.245 1214.44 118.373 1209 118.228C1214.44 118.103 1218.04 118.222 1220.23 117.095Z" fill="url(#paint38_radial)"/>
<path d="M1385.83 474.375C1387.95 473.257 1388.2 470.284 1388.51 465.707C1388.82 470.284 1389.06 473.256 1391.18 474.375C1393.3 475.503 1396.77 475.384 1402 475.51C1396.77 475.652 1393.3 475.527 1391.18 476.646C1389.06 477.764 1388.82 480.738 1388.51 485.326C1388.2 480.737 1387.95 477.764 1385.83 476.646C1383.72 475.528 1380.25 475.652 1375 475.51C1380.25 475.384 1383.72 475.503 1385.83 474.375Z" fill="url(#paint39_radial)"/>
<path d="M1317.23 546.105C1318.64 545.457 1318.8 543.735 1319 541.087C1319.22 543.735 1319.38 545.457 1320.79 546.105C1322.2 546.757 1324.51 546.693 1328 546.759C1324.51 546.843 1322.2 546.768 1320.79 547.42C1319.38 548.066 1319.22 549.788 1319 552.446C1318.8 549.788 1318.64 548.066 1317.23 547.42C1315.82 546.768 1313.51 546.843 1310 546.759C1313.51 546.693 1315.82 546.758 1317.23 546.105Z" fill="url(#paint40_radial)"/>
<path d="M167.432 407.841C169.465 406.777 169.712 403.956 170.009 399.62C170.304 403.956 170.547 406.777 172.585 407.841C174.615 408.904 177.962 408.792 183 408.907C177.962 409.043 174.615 408.922 172.585 409.986C170.547 411.046 170.304 413.863 170.009 418.207C169.712 413.863 169.465 411.046 167.432 409.986C165.393 408.922 162.056 409.043 157 408.907C162.056 408.792 165.393 408.904 167.432 407.841Z" fill="url(#paint41_radial)"/>
<path d="M223.67 483.576C224.996 482.868 225.162 480.983 225.353 478.098C225.549 480.983 225.707 482.868 227.042 483.576C228.37 484.287 230.554 484.211 233.85 484.291C230.554 484.38 228.37 484.301 227.042 485.012C225.707 485.717 225.549 487.594 225.353 490.489C225.162 487.594 224.996 485.716 223.67 485.012C222.335 484.301 220.16 484.38 216.85 484.291C220.16 484.211 222.335 484.287 223.67 483.576Z" fill="url(#paint42_radial)"/>
<path d="M6.8199 537.848C8.15062 537.198 8.31391 535.471 8.50608 532.826C8.69976 535.471 8.85547 537.198 10.193 537.848C11.5177 538.498 13.7051 538.43 17 538.502C13.7051 538.583 11.5177 538.514 10.193 539.163C8.85547 539.809 8.69976 541.532 8.50608 544.185C8.31391 541.532 8.15062 539.808 6.8199 539.163C5.48767 538.514 3.30931 538.583 0 538.502C3.30931 538.43 5.48767 538.498 6.8199 537.848Z" fill="url(#paint43_radial)"/>
<path d="M156.456 111.555C160.458 109.542 160.923 104.223 161.51 96.0326C162.085 104.223 162.548 109.542 166.566 111.555C170.559 113.561 177.107 113.351 187.001 113.575C177.107 113.832 170.559 113.61 166.566 115.608C162.548 117.612 162.085 122.927 161.51 131.141C160.923 122.927 160.458 117.612 156.456 115.608C152.452 113.61 145.91 113.832 136 113.575C145.91 113.351 152.452 113.561 156.456 111.555Z" fill="url(#paint44_radial)"/>
<path d="M971.197 513.239C975.277 511.227 975.751 505.908 976.35 497.717C976.936 505.908 977.408 511.227 981.504 513.239C985.576 515.246 992.252 515.037 1002.34 515.26C992.252 515.516 985.576 515.296 981.504 517.293C977.408 519.297 976.936 524.612 976.35 532.826C975.751 524.612 975.277 519.297 971.197 517.293C967.114 515.296 960.444 515.516 950.34 515.26C960.443 515.037 967.114 515.246 971.197 513.239Z" fill="url(#paint45_radial)"/>
<defs>
<radialGradient id="paint0_radial" cx="0" cy="0" r="1" gradientUnits="userSpaceOnUse" gradientTransform="translate(1083.26 139.55) rotate(180) scale(25.2614 11.8904)">
<stop offset="0.0056" stop-color="white"/>
<stop offset="0.0899" stop-color="white"/>
<stop offset="0.2584" stop-color="#EF9394"/>
<stop offset="1" stop-color="#391C4E"/>
</radialGradient>
<radialGradient id="paint1_radial" cx="0" cy="0" r="1" gradientUnits="userSpaceOnUse" gradientTransform="translate(1414.5 104.446) rotate(180) scale(25.8993 11.8928)">
<stop offset="0.0056" stop-color="white"/>
<stop offset="0.0899" stop-color="white"/>
<stop offset="0.2697" stop-color="#FBEF63"/>
<stop offset="0.8427" stop-color="#23112F"/>
</radialGradient>
<radialGradient id="paint2_radial" cx="0" cy="0" r="1" gradientUnits="userSpaceOnUse" gradientTransform="translate(78.4678 193.234) rotate(180) scale(17.0396 8.36385)">
<stop offset="0.0056" stop-color="white"/>
<stop offset="0.0899" stop-color="white"/>
<stop offset="0.2584" stop-color="#EF9394"/>
<stop offset="1" stop-color="#22112E"/>
</radialGradient>
<radialGradient id="paint3_radial" cx="0" cy="0" r="1" gradientUnits="userSpaceOnUse" gradientTransform="translate(1353.97 131.317) rotate(180) scale(17.674 7.48474)">
<stop offset="0.0056" stop-color="white"/>
<stop offset="0.0899" stop-color="white"/>
<stop offset="0.2697" stop-color="#FBEF63"/>
<stop offset="1" stop-color="#1E1026"/>
</radialGradient>
<radialGradient id="paint4_radial" cx="0" cy="0" r="1" gradientUnits="userSpaceOnUse" gradientTransform="translate(1309.48 559.812) rotate(180) scale(17.0428 8.36446)">
<stop offset="0.0056" stop-color="white"/>
<stop offset="0.0899" stop-color="white"/>
<stop offset="0.2697" stop-color="#FBEF63"/>
<stop offset="1" stop-color="#422058"/>
</radialGradient>
<radialGradient id="paint5_radial" cx="0" cy="0" r="1" gradientUnits="userSpaceOnUse" gradientTransform="translate(1271.5 424.534) rotate(180) scale(17.0569 8.3716)">
<stop offset="0.0056" stop-color="white"/>
<stop offset="0.0899" stop-color="white"/>
<stop offset="0.2697" stop-color="#FBEF63"/>
<stop offset="1" stop-color="#361949"/>
</radialGradient>
<radialGradient id="paint6_radial" cx="0" cy="0" r="1" gradientUnits="userSpaceOnUse" gradientTransform="translate(259.972 361.592) rotate(180) scale(17.6754 7.48399)">
<stop offset="0.0056" stop-color="white"/>
<stop offset="0.0899" stop-color="white"/>
<stop offset="0.2584" stop-color="#EF9394"/>
<stop offset="1" stop-color="#361A4B"/>
</radialGradient>
<radialGradient id="paint7_radial" cx="0" cy="0" r="1" gradientUnits="userSpaceOnUse" gradientTransform="translate(1063.48 509.75) rotate(180) scale(15.7816 7.92528)">
<stop offset="0.0056" stop-color="white"/>
<stop offset="0.0899" stop-color="white"/>
<stop offset="0.2584" stop-color="#EF9394"/>
<stop offset="1" stop-color="#411F57"/>
</radialGradient>
<radialGradient id="paint8_radial" cx="0" cy="0" r="1" gradientUnits="userSpaceOnUse" gradientTransform="translate(11.4668 320.781) rotate(180) scale(10.7517 5.29016)">
<stop offset="0.0056" stop-color="white"/>
<stop offset="0.0899" stop-color="white"/>
<stop offset="0.2584" stop-color="#EF9394"/>
<stop offset="1" stop-color="#2D153B"/>
</radialGradient>
<radialGradient id="paint9_radial" cx="0" cy="0" r="1" gradientUnits="userSpaceOnUse" gradientTransform="translate(147.479 557.241) rotate(180) scale(10.7439 5.28724)">
<stop offset="0.0056" stop-color="white"/>
<stop offset="0.0899" stop-color="white"/>
<stop offset="0.2584" stop-color="#EF9394"/>
<stop offset="0.9944" stop-color="#422058"/>
</radialGradient>
<radialGradient id="paint10_radial" cx="0" cy="0" r="1" gradientUnits="userSpaceOnUse" gradientTransform="translate(353.969 220.136) rotate(180) scale(11.387 4.85404)">
<stop offset="0.0056" stop-color="white"/>
<stop offset="0.0899" stop-color="white"/>
<stop offset="0.2584" stop-color="#EF9394"/>
<stop offset="1" stop-color="#140E18"/>
</radialGradient>
<radialGradient id="paint11_radial" cx="0" cy="0" r="1" gradientUnits="userSpaceOnUse" gradientTransform="translate(1127.97 326.989) rotate(180) scale(10.1086 4.40576)">
<stop offset="0.0056" stop-color="white"/>
<stop offset="0.0899" stop-color="white"/>
<stop offset="0.2584" stop-color="#EF9394"/>
<stop offset="1" stop-color="#23112F"/>
</radialGradient>
<radialGradient id="paint12_radial" cx="0" cy="0" r="1" gradientUnits="userSpaceOnUse" gradientTransform="translate(1020.8 273.282) rotate(180) scale(25.9013 11.4531)">
<stop offset="0.0056" stop-color="white"/>
<stop offset="0.0899" stop-color="white"/>
<stop offset="0.2584" stop-color="#EF9394"/>
<stop offset="1" stop-color="#1C1023"/>
</radialGradient>
<radialGradient id="paint13_radial" cx="0" cy="0" r="1" gradientUnits="userSpaceOnUse" gradientTransform="translate(1407.49 321.287) rotate(180) scale(24.6327 11.8904)">
<stop offset="0.0056" stop-color="white"/>
<stop offset="0.0899" stop-color="white"/>
<stop offset="0.2584" stop-color="#EF9394"/>
<stop offset="1" stop-color="#341947"/>
</radialGradient>
<radialGradient id="paint14_radial" cx="0" cy="0" r="1" gradientUnits="userSpaceOnUse" gradientTransform="translate(1418.5 14.6043) rotate(180) scale(25.8949 11.8904)">
<stop offset="0.0056" stop-color="white"/>
<stop offset="0.0899" stop-color="white"/>
<stop offset="0.2584" stop-color="#EF9394"/>
<stop offset="1" stop-color="#2E163E"/>
</radialGradient>
<radialGradient id="paint15_radial" cx="0" cy="0" r="1" gradientUnits="userSpaceOnUse" gradientTransform="translate(1222.97 117.854) rotate(180) scale(17.6707 8.36385)">
<stop offset="0.0056" stop-color="white"/>
<stop offset="0.0899" stop-color="white"/>
<stop offset="0.2584" stop-color="#EF9394"/>
<stop offset="1" stop-color="#1E1024"/>
</radialGradient>
<radialGradient id="paint16_radial" cx="0" cy="0" r="1" gradientUnits="userSpaceOnUse" gradientTransform="translate(1419.97 528.861) rotate(180) scale(17.6972 8.37618)">
<stop offset="0.0056" stop-color="white"/>
<stop offset="0.0899" stop-color="white"/>
<stop offset="0.2584" stop-color="#EF9394"/>
<stop offset="1" stop-color="#402055"/>
</radialGradient>
<radialGradient id="paint17_radial" cx="0" cy="0" r="1" gradientUnits="userSpaceOnUse" gradientTransform="translate(1318.97 546.437) rotate(180) scale(11.366 4.84685)">
<stop offset="0.0056" stop-color="white"/>
<stop offset="0.0899" stop-color="white"/>
<stop offset="0.2584" stop-color="#EF9394"/>
<stop offset="1" stop-color="#411F57"/>
</radialGradient>
<radialGradient id="paint18_radial" cx="0" cy="0" r="1" gradientUnits="userSpaceOnUse" gradientTransform="translate(135.473 277.93) rotate(180) scale(15.7818 7.48513)">
<stop offset="0.0056" stop-color="white"/>
<stop offset="0.0899" stop-color="white"/>
<stop offset="0.2697" stop-color="#FBEF63"/>
<stop offset="1" stop-color="#291436"/>
</radialGradient>
<radialGradient id="paint19_radial" cx="0" cy="0" r="1" gradientUnits="userSpaceOnUse" gradientTransform="translate(353.973 12.0305) rotate(180) scale(11.3718 5.29007)">
<stop offset="0.0056" stop-color="white"/>
<stop offset="0.0899" stop-color="white"/>
<stop offset="0.2584" stop-color="#EF9394"/>
<stop offset="1" stop-color="#140E17"/>
</radialGradient>
<radialGradient id="paint20_radial" cx="0" cy="0" r="1" gradientUnits="userSpaceOnUse" gradientTransform="translate(8.47037 538.178) rotate(180) scale(10.7534 4.85534)">
<stop offset="0.0056" stop-color="white"/>
<stop offset="0.0899" stop-color="white"/>
<stop offset="0.2584" stop-color="#EF9394"/>
<stop offset="1" stop-color="#401F56"/>
</radialGradient>
<radialGradient id="paint21_radial" cx="0" cy="0" r="1" gradientUnits="userSpaceOnUse" gradientTransform="translate(1131 492.192) rotate(180) scale(32.8485 14.9778)">
<stop offset="0.0056" stop-color="white"/>
<stop offset="0.0899" stop-color="white"/>
<stop offset="0.2697" stop-color="#FBEF63"/>
<stop offset="1" stop-color="#120E16"/>
</radialGradient>
<radialGradient id="paint22_radial" cx="0" cy="0" r="1" gradientUnits="userSpaceOnUse" gradientTransform="translate(426.22 467.932) rotate(180) scale(32.2138 14.5386)">
<stop offset="0.0056" stop-color="white"/>
<stop offset="0.0899" stop-color="white"/>
<stop offset="0.2697" stop-color="#FBEF63"/>
<stop offset="1" stop-color="#3B1D50"/>
</radialGradient>
<radialGradient id="paint23_radial" cx="0" cy="0" r="1" gradientUnits="userSpaceOnUse" gradientTransform="translate(44.9799 448.3) rotate(180) scale(25.2614 11.8904)">
<stop offset="0.0056" stop-color="white"/>
<stop offset="0.0899" stop-color="white"/>
<stop offset="0.2584" stop-color="#EF9394"/>
<stop offset="1" stop-color="#391C4E"/>
</radialGradient>
<radialGradient id="paint24_radial" cx="0" cy="0" r="1" gradientUnits="userSpaceOnUse" gradientTransform="translate(1209.17 245.913) rotate(180) scale(25.2676 11.8928)">
<stop offset="0.0056" stop-color="white"/>
<stop offset="0.0899" stop-color="white"/>
<stop offset="0.2697" stop-color="#FBEF63"/>
<stop offset="0.8427" stop-color="#23112F"/>
</radialGradient>
<radialGradient id="paint25_radial" cx="0" cy="0" r="1" gradientUnits="userSpaceOnUse" gradientTransform="translate(78.4678 193.234) rotate(180) scale(17.0396 8.36385)">
<stop offset="0.0056" stop-color="white"/>
<stop offset="0.0899" stop-color="white"/>
<stop offset="0.2584" stop-color="#EF9394"/>
<stop offset="1" stop-color="#22112E"/>
</radialGradient>
<radialGradient id="paint26_radial" cx="0" cy="0" r="1" gradientUnits="userSpaceOnUse" gradientTransform="translate(1353.97 131.317) rotate(180) scale(17.674 7.48474)">
<stop offset="0.0056" stop-color="white"/>
<stop offset="0.0899" stop-color="white"/>
<stop offset="0.2697" stop-color="#FBEF63"/>
<stop offset="1" stop-color="#1E1026"/>
</radialGradient>
<radialGradient id="paint27_radial" cx="0" cy="0" r="1" gradientUnits="userSpaceOnUse" gradientTransform="translate(1309.48 559.812) rotate(180) scale(17.0428 8.36446)">
<stop offset="0.0056" stop-color="white"/>
<stop offset="0.0899" stop-color="white"/>
<stop offset="0.2697" stop-color="#FBEF63"/>
<stop offset="1" stop-color="#422058"/>
</radialGradient>
<radialGradient id="paint28_radial" cx="0" cy="0" r="1" gradientUnits="userSpaceOnUse" gradientTransform="translate(1237.5 500.411) rotate(180) scale(17.0569 8.81221)">
<stop offset="0.0056" stop-color="white"/>
<stop offset="0.0899" stop-color="white"/>
<stop offset="0.2697" stop-color="#FBEF63"/>
<stop offset="1" stop-color="#361949"/>
</radialGradient>
<radialGradient id="paint29_radial" cx="0" cy="0" r="1" gradientUnits="userSpaceOnUse" gradientTransform="translate(247.473 222.686) rotate(180) scale(17.0442 7.92422)">
<stop offset="0.0056" stop-color="white"/>
<stop offset="0.0899" stop-color="white"/>
<stop offset="0.2584" stop-color="#EF9394"/>
<stop offset="1" stop-color="#361A4B"/>
</radialGradient>
<radialGradient id="paint30_radial" cx="0" cy="0" r="1" gradientUnits="userSpaceOnUse" gradientTransform="translate(1034.48 408.018) rotate(180) scale(17.0442 8.36558)">
<stop offset="0.0056" stop-color="white"/>
<stop offset="0.0899" stop-color="white"/>
<stop offset="0.2584" stop-color="#EF9394"/>
<stop offset="1" stop-color="#411F57"/>
</radialGradient>
<radialGradient id="paint31_radial" cx="0" cy="0" r="1" gradientUnits="userSpaceOnUse" gradientTransform="translate(11.4668 320.781) rotate(180) scale(10.7517 5.29016)">
<stop offset="0.0056" stop-color="white"/>
<stop offset="0.0899" stop-color="white"/>
<stop offset="0.2584" stop-color="#EF9394"/>
<stop offset="1" stop-color="#2D153B"/>
</radialGradient>
<radialGradient id="paint32_radial" cx="0" cy="0" r="1" gradientUnits="userSpaceOnUse" gradientTransform="translate(91.4787 411.643) rotate(180) scale(10.7439 5.28724)">
<stop offset="0.0056" stop-color="white"/>
<stop offset="0.0899" stop-color="white"/>
<stop offset="0.2584" stop-color="#EF9394"/>
<stop offset="0.9944" stop-color="#422058"/>
</radialGradient>
<radialGradient id="paint33_radial" cx="0" cy="0" r="1" gradientUnits="userSpaceOnUse" gradientTransform="translate(1143.97 5.35293) rotate(180) scale(10.1217 4.85404)">
<stop offset="0.0056" stop-color="white"/>
<stop offset="0.0899" stop-color="white"/>
<stop offset="0.2584" stop-color="#EF9394"/>
<stop offset="1" stop-color="#140E18"/>
</radialGradient>
<radialGradient id="paint34_radial" cx="0" cy="0" r="1" gradientUnits="userSpaceOnUse" gradientTransform="translate(1401.47 215.467) rotate(180) scale(9.4768 4.40576)">
<stop offset="0.0056" stop-color="white"/>
<stop offset="0.0899" stop-color="white"/>
<stop offset="0.2584" stop-color="#EF9394"/>
<stop offset="1" stop-color="#23112F"/>
</radialGradient>
<radialGradient id="paint35_radial" cx="0" cy="0" r="1" gradientUnits="userSpaceOnUse" gradientTransform="translate(1184.5 389.967) rotate(180) scale(25.9013 11.4531)">
<stop offset="0.0056" stop-color="white"/>
<stop offset="0.0899" stop-color="white"/>
<stop offset="0.2584" stop-color="#EF9394"/>
<stop offset="1" stop-color="#1C1023"/>
</radialGradient>
<radialGradient id="paint36_radial" cx="0" cy="0" r="1" gradientUnits="userSpaceOnUse" gradientTransform="translate(1338.99 363.122) rotate(180) scale(24.0011 11.45)">
<stop offset="0.0056" stop-color="white"/>
<stop offset="0.0899" stop-color="white"/>
<stop offset="0.2584" stop-color="#EF9394"/>
<stop offset="1" stop-color="#341947"/>
</radialGradient>
<radialGradient id="paint37_radial" cx="0" cy="0" r="1" gradientUnits="userSpaceOnUse" gradientTransform="translate(1329.5 15.6369) rotate(180) scale(25.8949 11.8904)">
<stop offset="0.0056" stop-color="white"/>
<stop offset="0.0899" stop-color="white"/>
<stop offset="0.2584" stop-color="#EF9394"/>
<stop offset="1" stop-color="#2E163E"/>
</radialGradient>
<radialGradient id="paint38_radial" cx="0" cy="0" r="1" gradientUnits="userSpaceOnUse" gradientTransform="translate(1222.97 117.854) rotate(180) scale(17.6707 8.36385)">
<stop offset="0.0056" stop-color="white"/>
<stop offset="0.0899" stop-color="white"/>
<stop offset="0.2584" stop-color="#EF9394"/>
<stop offset="1" stop-color="#1E1024"/>
</radialGradient>
<radialGradient id="paint39_radial" cx="0" cy="0" r="1" gradientUnits="userSpaceOnUse" gradientTransform="translate(1388.47 475.165) rotate(180) scale(17.0651 8.37618)">
<stop offset="0.0056" stop-color="white"/>
<stop offset="0.0899" stop-color="white"/>
<stop offset="0.2584" stop-color="#EF9394"/>
<stop offset="1" stop-color="#402055"/>
</radialGradient>
<radialGradient id="paint40_radial" cx="0" cy="0" r="1" gradientUnits="userSpaceOnUse" gradientTransform="translate(1318.97 546.437) rotate(180) scale(11.366 4.84685)">
<stop offset="0.0056" stop-color="white"/>
<stop offset="0.0899" stop-color="white"/>
<stop offset="0.2584" stop-color="#EF9394"/>
<stop offset="1" stop-color="#411F57"/>
</radialGradient>
<radialGradient id="paint41_radial" cx="0" cy="0" r="1" gradientUnits="userSpaceOnUse" gradientTransform="translate(169.972 408.535) rotate(180) scale(16.4131 7.92543)">
<stop offset="0.0056" stop-color="white"/>
<stop offset="0.0899" stop-color="white"/>
<stop offset="0.2697" stop-color="#FBEF63"/>
<stop offset="1" stop-color="#291436"/>
</radialGradient>
<radialGradient id="paint42_radial" cx="0" cy="0" r="1" gradientUnits="userSpaceOnUse" gradientTransform="translate(225.324 483.933) rotate(180) scale(10.7401 5.29007)">
<stop offset="0.0056" stop-color="white"/>
<stop offset="0.0899" stop-color="white"/>
<stop offset="0.2584" stop-color="#EF9394"/>
<stop offset="1" stop-color="#140E17"/>
</radialGradient>
<radialGradient id="paint43_radial" cx="0" cy="0" r="1" gradientUnits="userSpaceOnUse" gradientTransform="translate(8.47037 538.178) rotate(180) scale(10.7534 4.85534)">
<stop offset="0.0056" stop-color="white"/>
<stop offset="0.0899" stop-color="white"/>
<stop offset="0.2584" stop-color="#EF9394"/>
<stop offset="1" stop-color="#401F56"/>
</radialGradient>
<radialGradient id="paint44_radial" cx="0" cy="0" r="1" gradientUnits="userSpaceOnUse" gradientTransform="translate(161.5 113.225) rotate(180) scale(32.2167 14.9778)">
<stop offset="0.0056" stop-color="white"/>
<stop offset="0.0899" stop-color="white"/>
<stop offset="0.2697" stop-color="#FBEF63"/>
<stop offset="1" stop-color="#120E16"/>
</radialGradient>
<radialGradient id="paint45_radial" cx="0" cy="0" r="1" gradientUnits="userSpaceOnUse" gradientTransform="translate(976.347 514.907) rotate(180) scale(32.8485 14.9778)">
<stop offset="0.0056" stop-color="white"/>
<stop offset="0.0899" stop-color="white"/>
<stop offset="0.2697" stop-color="#FBEF63"/>
<stop offset="1" stop-color="#120E16"/>
</radialGradient>
</defs>
</svg>
