<svg id="Layer_1" data-name="Layer 1" xmlns="http://www.w3.org/2000/svg" xmlns:xlink="http://www.w3.org/1999/xlink" viewBox="0 0 500 500"><defs><style>.cls-1{fill:none;}.cls-2{clip-path:url(#clip-path);}.cls-3{fill:#dd8832;}.cls-4{fill:#ed4596;}.cls-5{fill:#9764c9;}.cls-6{fill:#dfb3fc;}</style><clipPath id="clip-path"><rect class="cls-1" x="32.99" width="434.03" height="500"/></clipPath></defs><title>logo</title><g class="cls-2"><path class="cls-3" d="M41.13,139.38v89c0,27.3-.05,31.13,0,34.71,0,1.15,0,2.39,0,2.39,0,.32,0,1.67,0,3.61,0,.9,0,1.62,0,1.76.15,12.78.06,24.5.06,24.5,0,2-.06,4.91-.11,8.4,0,0,12.23,163.2,115.1,191.59,12.86,3.54-80.47-53.21-80.47-189.81V21.7H41.13V32.93"/><path d="M36.62,139.39c0,41.75-.36,83.55,0,125.31.17,19-.66,37.49,2.1,56.26,7.57,51.55,24.69,107.4,61.83,145.66a123.67,123.67,0,0,0,37,26.6c4.06,1.85,21.88,12.08,24.26,3.2,1.14-4.26-4.42-8.18-7-10.73-6.25-6.2-12.31-12.57-18-19.29a238,238,0,0,1-44.16-79.7c-15.44-47.73-12.41-97.56-12.41-147v-218a4.57,4.57,0,0,0-4.51-4.5H41.11a4.58,4.58,0,0,0-4.51,4.5V32.91c0,5.79,9,5.79,9,0V21.68l-4.51,4.49H75.74l-4.5-4.49v241.7c0,25.29-1,50.78,2,75.95,4.22,35.15,15.19,69.28,33.28,99.8a258.46,258.46,0,0,0,39.68,50.7c1.9,1.88,3.74,3.86,5.72,5.68.42.39.9,1.24,1.43,1.51-.08,0,3.13-7.84,4.58-5.94-.87-1.13-6.5-1.94-8-2.48a96.21,96.21,0,0,1-9.56-4,111.93,111.93,0,0,1-21.18-13.21c-42.57-33.79-61.27-91.68-70.26-143.25-3.37-19.42-3-37.61-3.24-57.36-.46-43.81-.06-87.64-.06-131.44C45.64,133.6,36.62,133.6,36.62,139.39Z"/><path d="M36.62,62.47v40.21c0,5.79,9,5.79,9,0V62.47C45.64,56.7,36.62,56.68,36.62,62.47Z"/><path d="M36.62,33.92V62.47c0,5.78,9,5.78,9,0V33.92C45.64,28.15,36.62,28.13,36.62,33.92Z"/><path d="M164.26,263.08c5.8,0,5.8-9,0-9S158.45,263.08,164.26,263.08Z"/><path class="cls-4" d="M164.45,258.58q-1.23-113.52-2.48-227l-48.71,55.9V311.18c0,2.41,3.76,81.13,56.66,132,41.65,40,90.89,41.77,111.76,42.33,22.06.59,80,2.14,125.53-46.47,33.13-35.34,43.47-79.83,46.05-91.59,4.2-19.07,4.62-33.67,5-53.67.65-36.55,1-86.4,0-147.39H406.47V299.41c-1.3,15.31-5.52,42.49-21.38,69.76-3.87,6.67-10.35,17.67-21.41,28.08C331.32,427.74,290.86,424,280.15,423a114.25,114.25,0,0,1-65.59-27.15c-40.6-34.61-48.27-87.46-49.71-99.11"/><path d="M169,258.58q-1.25-113.52-2.48-227c0-3.67-5.06-6.22-7.71-3.18C143,46.47,126.29,64,111.37,82.8c-3,3.75-2.6,6.56-2.6,11.21V298.38c0,57,21.39,118.21,66.33,155.33,31.67,26.18,70.33,35.54,110.62,36.31,39.29.78,78-8.53,109.13-33.47,33.23-26.62,53.84-66.94,62.79-108,5.42-24.81,5.12-50.21,5.43-75.44q.49-39.58.24-79.15-.13-23.83-.55-47.67a4.57,4.57,0,0,0-4.5-4.5H406.51a4.57,4.57,0,0,0-4.51,4.5V292.4c0,38.54-16.87,83-47.89,107.13-30,23.32-74.57,25.12-108.85,10.21-44.62-19.39-70-66.6-75.86-113.07-.72-5.66-9.74-5.73-9,0,5,39.95,22.69,80.14,55,105.49,30.66,24.08,74.49,32.57,112,21.1,51.43-15.71,80.42-72.19,83.55-123,1.45-23.24.07-47,.07-70.25V146.31l-4.5,4.49h51.75l-4.51-4.49c.83,51.26,1,102.58-.13,153.87-1,42.51-11.24,83.84-36.09,119.05-27.35,38.76-70.17,59.9-117.16,61.7-34.6,1.33-70-3.06-100.33-20.71-53-30.81-82.23-96.71-82.23-156.61V105.12c0-2.66,1.86-15,0-17.09-1.07-1.21-.13,2.6-1.17,2.42.39.08,2.36-2.71,2.63-3l11.26-12.92q14.55-16.73,29.13-33.43c1.84-2.13,3.68-4.23,5.52-6.35l-7.71-3.18,2.49,227C160,264.35,169,264.37,169,258.58Z"/><path class="cls-5" d="M375.17,72.12s-.56,159.91,0,221.39S318.12,374,318.12,374q-1.31-147.74-2.6-295.47,16.51-38.12,33-76.25,8.72,16.5,17.41,33l9.27,17.45"/><path d="M372.92,72.12q-.19,55.79-.24,111.59,0,41.1.08,82.17c.09,26.39,1.91,52.56-14.43,75.18-9.76,13.5-24.81,25.38-40.81,30.74,1,.71,1.9,1.43,2.85,2.17L318.72,185.3q-.42-46.28-.82-92.56c-.09-10,1.1-16.63,5.07-25.82q4.11-9.51,8.25-19.05L350.46,3.4h-3.89q13.31,25.22,26.67,50.42c1.36,2.55,5.25.29,3.9-2.26Q363.78,26.38,350.46,1.13c-.72-1.38-3.23-1.56-3.89,0q-9.65,22.25-19.25,44.48c-3.21,7.4-6.42,14.83-9.62,22.23-2.12,4.93-4.36,8.88-4.4,14.22-.16,32.63.58,65.27.87,97.9q.87,97,1.71,194a2.3,2.3,0,0,0,2.85,2.18c12.63-4.23,24.55-12.39,33.95-21.65,19.54-19.25,24.86-43.25,24.69-69.78-.36-55.49-.19-111-.05-166.47q.06-23.06.13-46.09C377.43,69.23,372.92,69.21,372.92,72.12Z"/><path class="cls-6" d="M347.41,6.38V87l-29-6.43"/><path d="M345.16,6.38V87L348,84.85l-29-6.44c-2.83-.63-4,3.7-1.19,4.33l29,6.44A2.28,2.28,0,0,0,349.67,87V6.36C349.67,3.49,345.16,3.49,345.16,6.38Z"/><path d="M318.12,376.2c17.1-1.62,23.3-22.13,26.57-36.13,4.36-18.75,5.61-38.31,5.81-57.51.3-28.49-.11-57-.06-85.49.06-21,.13-41.94-.07-62.92q-.17-18.54-.5-37.12c-.15-7.37.86-9.24,7.23-12.65l17.08-9.17c2.56-1.36.29-5.25-2.27-3.88q-12.8,6.87-25.61,13.73A2.19,2.19,0,0,0,345.18,87c1.08,52.44.77,104.87.77,157.31,0,25.54.85,51.23-2.45,76.63-1.89,14.65-5.65,48.86-25.38,50.75C315.25,372,315.22,376.47,318.12,376.2Z"/><path class="cls-4" d="M432.25,125.15c0-50.3,36-55,36-55-37.07-1.56-36-48.71-36-48.71s.59,47.11-35,51.86c2.11-.22,14.49-1.14,24.65,12.85C433,101.53,432.37,122.36,432.25,125.15Z"/><path d="M434.5,125.15c.29-21.45,9.47-49.36,34.36-52.85,2.65-.38,1.79-4.26-.59-4.42-23.85-1.62-34.11-25.15-33.75-46.47H430c.16,21.62-9.78,45.91-33.35,49.7-2.49.4-1.93,4.64.59,4.42C422,73.4,430.73,105.91,430,125.15c-.13,2.89,4.38,2.89,4.49,0,.81-21.5-9.9-56.48-37.27-54.11l.6,4.42c25.56-4.1,36.85-30.5,36.67-54,0-2.9-4.45-2.9-4.51,0-.41,24,11.85,49.16,38.26,51l-.6-4.42c-26.91,3.77-37.33,33.92-37.66,57.18C430,128,434.47,128,434.5,125.15Z"/></g></svg>