<svg width="1920" height="219" viewBox="0 0 1920 219" fill="none" xmlns="http://www.w3.org/2000/svg">
<path d="M0 0.500031L154 140C219 180.5 256 235.5 384 213.8C567 51.6999 640 160.5 768 123.2C896 85.5 1024 43.5 1152 69.8C1280 96.5 1710.04 -31.1743 1859.5 58.5C1872 66 1898.5 78 1920 147V160.5V0.500031L1868 0.5C1733 0.5 1800 0.5 1672 0.5C1544 0.5 1280 0.500031 1152 0.500031C1024 0.500031 896 0.500031 768 0.500031C640 0.500031 512 0.500031 384 0.500031C256 0.500031 128 0.500031 64 0.500031H0Z" fill="#0099FF"/>
</svg>
