<svg width="1392" height="161" viewBox="0 0 1392 161" fill="none" xmlns="http://www.w3.org/2000/svg">
<path d="M0 0.328743C0 0.328743 8.49998 -4.67134 36.4995 24.3287C64.499 53.3288 85.9998 -24.9714 167.5 17.8287C248.999 60.6288 432 160.329 528 123.029C624 85.3288 720 43.3288 816 69.6288C912 96.3288 1234.53 -31.3456 1346.62 58.3287C1356 65.8287 1375.87 77.8286 1392 146.829V160.329V0.328743L1353 0.328713C1251.75 0.328713 1302 0.328713 1206 0.328713C1110 0.328713 912 0.328743 816 0.328743C720 0.328743 624 0.328743 528 0.328743C432 0.328743 336 0.328743 240 0.328743C144 0.328743 48 0.328743 0 0.328743Z" fill="#0099FF"/>
</svg>
